<svg width="104" height="88" viewBox="0 0 104 88" fill="none" xmlns="http://www.w3.org/2000/svg">
<path d="M42.406 49.1637V87.0543H0V57.1345C0 40.9574 2.35589 29.2172 7.0284 21.9532C13.193 12.2941 22.9307 4.99082 36.2414 0.043457L45.9006 12.726C37.8513 15.5138 31.9223 19.6366 28.1136 25.1337C24.3049 30.6308 22.1846 38.6408 21.7527 49.1637H42.406Z" fill="#EDEDED"/>
<path d="M100.402 49.1596V87.0501H57.9961V57.1303C57.9961 40.9532 60.352 29.213 65.0245 21.949C71.1891 12.2899 80.9267 4.98663 94.2375 0L103.897 12.6825C95.8474 15.4703 89.9184 19.5931 86.1097 25.0902C82.301 30.5873 80.1807 38.5973 79.7488 49.1203H100.402V49.1596Z" fill="#EDEDED"/>
</svg>
