<svg width="20" height="14" viewBox="0 0 20 14" fill="none" xmlns="http://www.w3.org/2000/svg">
<path d="M12.4311 13.6375C12.2411 13.6375 12.0511 13.5675 11.9011 13.4175C11.6111 13.1275 11.6111 12.6475 11.9011 12.3575L17.4411 6.8175L11.9011 1.2775C11.6111 0.9875 11.6111 0.5075 11.9011 0.2175C12.1911 -0.0725 12.6711 -0.0725 12.9611 0.2175L19.0311 6.2875C19.3211 6.5775 19.3211 7.0575 19.0311 7.3475L12.9611 13.4175C12.8111 13.5675 12.6211 13.6375 12.4311 13.6375Z" fill="#878A8C"/>
<path d="M18.2226 7.5H0.777414C0.352428 7.5 0 7.16 0 6.75C0 6.34 0.352428 6 0.777414 6H18.2226C18.6476 6 19 6.34 19 6.75C19 7.16 18.6476 7.5 18.2226 7.5Z" fill="#878A8C"/>
</svg>
