<svg width="48" height="48" viewBox="0 0 48 48" fill="none" xmlns="http://www.w3.org/2000/svg">
<path d="M35.24 21.5002C34.38 21.5002 33.7 20.8002 33.7 19.9602C33.7 19.2202 32.96 17.6802 31.72 16.3402C30.5 15.0402 29.16 14.2802 28.04 14.2802C27.18 14.2802 26.5 13.5802 26.5 12.7402C26.5 11.9002 27.2 11.2002 28.04 11.2002C30.04 11.2002 32.14 12.2802 33.98 14.2202C35.7 16.0402 36.8 18.3002 36.8 19.9402C36.8 20.8002 36.1 21.5002 35.24 21.5002Z" fill="#122F71"/>
<path d="M42.4595 21.5C41.5995 21.5 40.9195 20.8 40.9195 19.96C40.9195 12.86 35.1395 7.1 28.0595 7.1C27.1995 7.1 26.5195 6.4 26.5195 5.56C26.5195 4.72 27.1995 4 28.0395 4C36.8395 4 43.9995 11.16 43.9995 19.96C43.9995 20.8 43.2995 21.5 42.4595 21.5Z" fill="#122F71"/>
<path d="M22.1 29.9L18.4 33.6C17.62 34.38 16.38 34.38 15.58 33.62C15.36 33.4 15.14 33.2 14.92 32.98C12.86 30.9 11 28.72 9.34 26.44C7.7 24.16 6.38 21.88 5.42 19.62C4.48 17.34 4 15.16 4 13.08C4 11.72 4.24 10.42 4.72 9.22C5.2 8 5.96 6.88 7.02 5.88C8.3 4.62 9.7 4 11.18 4C11.74 4 12.3 4.12 12.8 4.36C13.32 4.6 13.78 4.96 14.14 5.48L18.78 12.02C19.14 12.52 19.4 12.98 19.58 13.42C19.76 13.84 19.86 14.26 19.86 14.64C19.86 15.12 19.72 15.6 19.44 16.06C19.18 16.52 18.8 17 18.32 17.48L16.8 19.06C16.58 19.28 16.48 19.54 16.48 19.86C16.48 20.02 16.5 20.16 16.54 20.32C16.6 20.48 16.66 20.6 16.7 20.72C17.06 21.38 17.68 22.24 18.56 23.28C19.46 24.32 20.42 25.38 21.46 26.44C21.66 26.64 21.88 26.84 22.08 27.04C22.88 27.82 22.9 29.1 22.1 29.9Z" fill="#122F71"/>
<path d="M43.9402 36.6601C43.9402 37.2201 43.8402 37.8001 43.6402 38.3601C43.5802 38.5201 43.5202 38.6801 43.4402 38.8401C43.1002 39.5601 42.6602 40.2401 42.0802 40.8801C41.1002 41.9601 40.0202 42.7401 38.8002 43.2401C38.7802 43.2401 38.7602 43.2601 38.7402 43.2601C37.5602 43.7401 36.2802 44.0001 34.9002 44.0001C32.8602 44.0001 30.6802 43.5201 28.3802 42.5401C26.0802 41.5601 23.7802 40.2401 21.5002 38.5801C20.7202 38.0001 19.9402 37.4201 19.2002 36.8001L25.7402 30.2601C26.3002 30.6801 26.8002 31.0001 27.2202 31.2201C27.3202 31.2601 27.4402 31.3201 27.5802 31.3801C27.7402 31.4401 27.9002 31.4601 28.0802 31.4601C28.4202 31.4601 28.6802 31.3401 28.9002 31.1201L30.4202 29.6201C30.9202 29.1201 31.4002 28.7401 31.8602 28.5001C32.3202 28.2201 32.7802 28.0801 33.2802 28.0801C33.6602 28.0801 34.0602 28.1601 34.5002 28.3401C34.9402 28.5201 35.4002 28.7801 35.9002 29.1201L42.5202 33.8201C43.0402 34.1801 43.4002 34.6001 43.6202 35.1001C43.8202 35.6001 43.9402 36.1001 43.9402 36.6601Z" fill="#122F71"/>
</svg>
