<svg width="90" height="90" viewBox="0 0 90 90" fill="none" xmlns="http://www.w3.org/2000/svg">
<circle cx="45" cy="45" r="45" fill="#122F71"/>
<path d="M52.1159 68.4053C52.1159 69.2129 51.4604 69.8684 50.6526 69.8684H38.9474C38.1397 69.8684 37.4842 69.2129 37.4842 68.4053C37.4842 67.5975 38.1397 66.942 38.9474 66.942H50.6526C51.4604 66.9421 52.1159 67.5976 52.1159 68.4053ZM50.6526 70.6H38.9474C37.9846 70.6 37.2391 71.53 37.5596 72.5402C37.7528 73.1496 38.3694 73.5263 39.0089 73.5263H39.0309C39.8758 73.5263 40.6484 74.004 41.0266 74.7598L41.042 74.7906C41.5519 75.8089 42.5929 76.4526 43.732 76.4526H45.8682C47.0073 76.4526 48.0483 75.8089 48.5575 74.7906L48.5729 74.7598C48.9512 74.0041 49.7236 73.5263 50.5686 73.5263H50.5906C51.2299 73.5263 51.8467 73.1496 52.0398 72.5402C52.3609 71.5299 51.6154 70.6 50.6526 70.6ZM44.8001 23.7789C45.6078 23.7789 46.2633 23.1234 46.2633 22.3158V16.4632C46.2633 15.6555 45.6078 15 44.8001 15C43.9924 15 43.3369 15.6555 43.3369 16.4632V22.3158C43.3369 23.1234 43.9924 23.7789 44.8001 23.7789ZM29.2811 29.3499C29.5664 29.636 29.941 29.7787 30.3155 29.7787C30.6901 29.7787 31.0646 29.636 31.3499 29.3499C31.9213 28.7785 31.9213 27.8523 31.3499 27.2811L27.2114 23.1425C26.6408 22.5711 25.7131 22.5711 25.1426 23.1425C24.5712 23.7139 24.5712 24.64 25.1426 25.2113L29.2811 29.3499ZM25.779 42.8C25.779 41.9924 25.1234 41.3368 24.3158 41.3368H18.4632C17.6555 41.3368 17 41.9924 17 42.8C17 43.6076 17.6555 44.2632 18.4632 44.2632H24.3158C25.1235 44.2632 25.779 43.6076 25.779 42.8ZM29.2811 56.2501L25.1426 60.3887C24.5712 60.9601 24.5712 61.8863 25.1426 62.4575C25.4279 62.7436 25.8024 62.8862 26.177 62.8862C26.5515 62.8862 26.9261 62.7436 27.2114 62.4575L31.3499 58.319C31.9213 57.7476 31.9213 56.8215 31.3499 56.2501C30.7793 55.6787 29.8517 55.6787 29.2811 56.2501ZM60.3191 56.2501C59.7477 55.6787 58.8215 55.6787 58.2502 56.2501C57.6789 56.8215 57.6788 57.7477 58.2502 58.319L62.3888 62.4575C62.6748 62.7436 63.0487 62.8862 63.4232 62.8862C63.7977 62.8862 64.1716 62.7436 64.4576 62.4575C65.029 61.8862 65.029 60.96 64.4576 60.3887L60.3191 56.2501ZM71.1369 41.3368H65.2842C64.4766 41.3368 63.8211 41.9924 63.8211 42.8C63.8211 43.6076 64.4766 44.2632 65.2842 44.2632H71.1369C71.9445 44.2632 72.6 43.6076 72.6 42.8C72.6 41.9924 71.9445 41.3368 71.1369 41.3368ZM59.2845 29.7787C59.659 29.7787 60.0329 29.636 60.319 29.3499L64.4575 25.2113C65.0289 24.64 65.0289 23.7139 64.4575 23.1425C63.8862 22.5711 62.96 22.5711 62.3887 23.1425L58.2501 27.2811C57.6787 27.8524 57.6787 28.7785 58.2501 29.3499C58.5355 29.636 58.91 29.7787 59.2845 29.7787ZM52.1159 64.7474C52.1159 65.555 51.4604 66.2105 50.6526 66.2105H38.9474C38.1397 66.2105 37.4842 65.555 37.4842 64.7474C37.4842 63.9683 38.0951 63.3369 38.8632 63.2929C37.9524 55.0598 29.4368 53.2258 29.4368 43.5316C29.4368 35.0468 36.3152 28.1684 44.8 28.1684C53.2848 28.1684 60.1632 35.0468 60.1632 43.5316C60.1632 53.2257 51.6476 55.0598 50.7368 63.293C51.5049 63.3369 52.1159 63.9683 52.1159 64.7474ZM41.4282 32.2726C41.2006 31.7114 40.562 31.4415 39.9987 31.6675C36.2596 33.1826 33.4248 36.4213 32.4159 40.3308C32.2644 40.9182 32.6178 41.516 33.2046 41.6675C33.296 41.6916 33.3882 41.7025 33.4789 41.7025C33.9676 41.7025 34.4132 41.3741 34.5412 40.8795C35.3767 37.6401 37.7251 34.9566 40.8226 33.702C41.3843 33.4746 41.655 32.8351 41.4282 32.2726Z" fill="white"/>
</svg>
