<svg width="90" height="90" viewBox="0 0 90 90" fill="none" xmlns="http://www.w3.org/2000/svg">
<circle cx="45" cy="45" r="45" fill="#122F71"/>
<path d="M55.6311 14C46.4044 14 38.6783 19.3243 36.5 26.5126C38.328 26.5374 40.0249 26.8906 41.5445 27.5395H65.8986C66.4603 27.5395 66.9148 27.9942 66.9148 28.5558C66.9148 29.1175 66.4603 29.572 65.8986 29.572H44.766C46.0023 30.6619 47.0196 32.0165 47.7848 33.5815H65.8986C66.4603 33.5815 66.9148 34.036 66.9148 34.5977C66.9148 35.1593 66.4603 35.6139 65.8986 35.6139H48.5867C49.0919 37.2138 49.3747 38.9702 49.3747 40.8638C49.3747 42.6274 49.1443 44.4297 48.7306 46.186C49.4363 46.4074 50.1588 46.5949 50.9001 46.7488L50.4804 51.6346C50.3592 53.0368 52.0702 53.8099 53.0438 52.7927L58.5378 47.0486C68.0719 45.8634 75.3962 38.9722 75.3962 30.6239C75.3962 21.4433 66.5476 14 55.6311 14Z" fill="white"/>
<path d="M57.3357 67.7979C55.7231 63.0502 51.9866 59.4923 47.4086 57.9601C46.8686 57.7794 46.2781 58.0306 46.034 58.5446L39.5912 72.124L40.8595 65.0996C40.9945 64.3502 40.8058 63.5782 40.3405 62.9758L36.9763 58.6259C36.8164 58.4186 36.5694 58.2974 36.3083 58.2974C36.0473 58.2974 35.8001 58.4186 35.6404 58.6259L32.2763 62.9758C31.8108 63.5782 31.6223 64.3502 31.7571 65.0996L33.0244 72.118L26.5826 58.5436C26.3385 58.0285 25.7489 57.7785 25.208 57.9601C20.6311 59.4924 16.8936 63.0502 15.2807 67.7979L14.1643 71.0849C13.8437 72.0298 13.9976 73.0718 14.5792 73.8836C15.1608 74.6953 16.0986 75.1767 17.0971 75.1767H55.5198C56.5182 75.1767 57.4559 74.6953 58.0377 73.8836C58.6193 73.0718 58.773 72.0298 58.4526 71.0849L57.3357 67.7979Z" fill="white"/>
<path d="M36.3086 56.2403C41.8424 56.2403 46.3281 48.2335 46.3281 40.8638C46.3281 33.494 41.8424 29.5521 36.3086 29.5521C30.777 29.5521 26.291 33.494 26.291 40.8638C26.291 48.2335 30.777 56.2403 36.3086 56.2403Z" fill="white"/>
</svg>
