<svg width="90" height="90" viewBox="0 0 90 90" fill="none" xmlns="http://www.w3.org/2000/svg">
<circle cx="45" cy="45" r="45" fill="#F70539"/>
<path d="M55.632 14C46.4054 14 38.6793 19.3243 36.501 26.5126C38.3289 26.5374 40.0259 26.8906 41.5455 27.5395H65.8996C66.4613 27.5395 66.9158 27.9942 66.9158 28.5558C66.9158 29.1175 66.4613 29.572 65.8996 29.572H44.767C46.0033 30.6619 47.0206 32.0165 47.7858 33.5815H65.8996C66.4613 33.5815 66.9158 34.036 66.9158 34.5977C66.9158 35.1593 66.4613 35.6139 65.8996 35.6139H48.5877C49.0929 37.2138 49.3756 38.9702 49.3756 40.8638C49.3756 42.6274 49.1453 44.4297 48.7316 46.186C49.4372 46.4074 50.1598 46.5949 50.9011 46.7488L50.4813 51.6346C50.3602 53.0368 52.0712 53.8099 53.0447 52.7927L58.5387 47.0486C68.0729 45.8634 75.3972 38.9722 75.3972 30.6239C75.3972 21.4433 66.5486 14 55.632 14Z" fill="white"/>
<path d="M57.3357 67.7979C55.7231 63.0502 51.9866 59.4923 47.4086 57.9601C46.8686 57.7794 46.2781 58.0306 46.034 58.5446L39.5912 72.124L40.8595 65.0996C40.9945 64.3502 40.8058 63.5782 40.3405 62.9758L36.9763 58.6259C36.8164 58.4186 36.5694 58.2974 36.3083 58.2974C36.0473 58.2974 35.8001 58.4186 35.6404 58.6259L32.2763 62.9758C31.8108 63.5782 31.6223 64.3502 31.7571 65.0996L33.0244 72.118L26.5826 58.5436C26.3385 58.0285 25.7489 57.7785 25.208 57.9601C20.6311 59.4924 16.8936 63.0502 15.2807 67.7979L14.1643 71.0849C13.8437 72.0298 13.9976 73.0718 14.5792 73.8836C15.1608 74.6953 16.0986 75.1767 17.0971 75.1767H55.5198C56.5182 75.1767 57.4559 74.6953 58.0377 73.8836C58.6193 73.0718 58.773 72.0298 58.4526 71.0849L57.3357 67.7979Z" fill="white"/>
<path d="M36.3086 56.2403C41.8424 56.2403 46.3281 48.2335 46.3281 40.8638C46.3281 33.494 41.8424 29.5521 36.3086 29.5521C30.777 29.5521 26.291 33.494 26.291 40.8638C26.291 48.2335 30.777 56.2403 36.3086 56.2403Z" fill="white"/>
</svg>
