<svg width="90" height="90" viewBox="0 0 90 90" fill="none" xmlns="http://www.w3.org/2000/svg">
<circle cx="45" cy="45" r="45" fill="#F70539"/>
<path d="M39.058 45.524C39.1916 45.524 39.3252 45.524 39.4587 45.524L54.1513 46.0582C55.8209 46.125 57.2901 46.7929 58.4255 48.0618C58.4923 48.1286 58.6258 48.2621 58.7594 48.3957L67.7753 45.5907C67.9089 45.524 68.1092 45.524 68.2428 45.524C71.3149 42.0512 73.118 37.5098 73.118 32.5678C73.118 21.7487 64.3693 13 53.5502 13C42.7312 13 33.9824 21.7487 33.9824 32.5678C33.9824 37.5766 35.8524 42.118 38.9245 45.5907H39.058V45.524ZM51.747 21.7487V19.9456C51.747 19.5449 52.081 19.2109 52.4817 19.2109H54.552C54.9527 19.2109 55.2866 19.5449 55.2866 19.9456V21.7487C57.4237 22.0159 59.0933 23.6855 59.3605 25.8894C59.3605 26.0897 59.2937 26.2901 59.1601 26.4236C58.9598 26.4904 58.7594 26.624 58.559 26.624H56.4887C56.1548 26.624 55.8877 26.4236 55.8209 26.0897C55.6873 25.5555 55.2198 25.2215 54.7523 25.2215H52.8824C51.9474 25.2215 51.0792 25.8894 51.0124 26.8244C50.9456 27.3586 51.146 27.8261 51.4799 28.16C51.8138 28.5607 52.2813 28.7611 52.8156 28.7611H54.4184C55.8877 28.7611 57.3569 29.3622 58.3587 30.4975C59.3605 31.6328 59.8279 33.0353 59.6944 34.5713C59.494 36.842 57.7576 38.712 55.4202 39.1795V41.0494C55.4202 41.4501 55.0863 41.784 54.6856 41.784H52.6152C52.2145 41.784 51.8806 41.4501 51.8806 41.0494V39.2462C49.7435 38.9791 48.0739 37.3095 47.8068 35.1056C47.8068 34.9053 47.8736 34.7049 48.0071 34.5713C48.1407 34.4378 48.341 34.3042 48.5414 34.3042H50.5449C50.8789 34.3042 51.146 34.5046 51.2796 34.8385C51.4131 35.3727 51.8806 35.7067 52.3481 35.7067H54.2181C55.153 35.7067 56.0212 35.0388 56.088 34.1038C56.1548 33.5696 55.9545 33.1021 55.6205 32.7682C55.2866 32.3675 54.8191 32.1671 54.2849 32.1671H52.9492C50.1442 32.1671 47.74 30.0968 47.4729 27.4254C47.2057 24.6873 49.0089 22.2162 51.747 21.7487Z" fill="white"/>
<path d="M20.0925 61.7527L16.2858 66.7615C15.8183 67.2958 15.9519 68.0972 16.4862 68.5647L26.5038 76.1113C27.1049 76.512 27.9063 76.4452 28.307 75.8442L32.1137 70.8354L20.3597 61.953C20.2929 61.8863 20.1593 61.8195 20.0925 61.7527Z" fill="white"/>
<path d="M68.7128 48.9298L59.5633 51.8015C59.5633 52.0019 59.5633 52.269 59.5633 52.4694C59.4298 55.0739 57.5598 57.211 55.022 57.7453L54.4209 57.8789C51.0817 58.5467 47.6757 59.0142 44.2697 59.081L41.4648 59.1478C40.5966 59.1478 39.862 58.4799 39.862 57.6785C39.862 56.8103 40.5298 56.0757 41.3312 56.0757L44.1362 56.0089C47.3418 55.8754 50.6142 55.4746 53.7531 54.8736L54.3542 54.74C55.4895 54.4729 56.3577 53.5379 56.4245 52.3358C56.4913 51.6679 56.2241 51.0001 55.7566 50.4658C55.2891 49.9315 54.6213 49.6644 53.9535 49.5976L39.3277 49.0634C37.7249 48.9966 36.0553 49.4641 34.7196 50.4658L22.498 59.2146L35.1203 68.7647L47.4086 69.9668C49.5457 70.1672 51.6828 69.5661 53.4192 68.2305L71.5177 54.2057C72.1856 53.6715 72.5863 52.9368 72.6531 52.0686C72.7198 51.2004 72.4527 50.399 71.8517 49.7312C71.0502 48.863 69.8481 48.5959 68.7128 48.9298Z" fill="white"/>
</svg>
