<svg width="90" height="90" viewBox="0 0 90 90" fill="none" xmlns="http://www.w3.org/2000/svg">
<circle cx="45" cy="45" r="45" fill="#122F71"/>
<path d="M25.2245 58.1328C25.2245 59.0608 24.4733 59.8066 23.5507 59.8066C22.6227 59.8066 21.8769 59.0553 21.8769 58.1328C21.8769 51.7635 24.4567 45.9964 28.6329 41.8201C32.8091 37.6439 38.5762 35.0642 44.9455 35.0642C51.3148 35.0642 57.0819 37.6439 61.2582 41.8201C65.4344 45.9964 68.0141 51.7635 68.0141 58.1328C68.0141 59.0608 67.2628 59.8066 66.3403 59.8066C65.4178 59.8066 64.6665 59.0553 64.6665 58.1328C64.6665 52.686 62.4624 47.7585 58.8938 44.19C55.3253 40.6214 50.3978 38.4173 44.951 38.4173C39.5043 38.4173 34.5768 40.6269 31.0082 44.19C27.4286 47.7585 25.2245 52.6916 25.2245 58.1328ZM59.5125 69.9212C59.4242 67.2807 59.5733 67.242 56.4853 66.0875C54.6734 65.408 52.3588 64.5462 50.6961 63.5132C48.7406 65.3251 47.4866 67.3967 47.4424 69.9212H59.5125ZM30.3675 69.9212C30.4558 67.2807 30.3067 67.242 33.3947 66.0875C35.2066 65.408 37.5211 64.5462 39.1839 63.5132C41.1394 65.3251 42.3934 67.3967 42.4376 69.9212H30.3675ZM41.0068 61.0219C41.0897 60.3535 39.1121 57.8179 38.753 56.5971C37.9796 55.3707 37.7034 53.4152 38.5486 52.117C38.8856 51.6033 38.742 50.6808 38.742 49.9737C38.742 42.9084 51.1215 42.9029 51.1215 49.9737C51.1215 50.8686 50.9171 51.5481 51.4032 52.2496C52.2152 53.4263 51.7954 55.5088 51.1104 56.6026C50.674 57.8787 48.6025 60.2982 48.7461 61.0274C48.8676 64.6512 40.9792 64.5297 41.0068 61.0219ZM78.88 39.489L76.0406 43.157L78.0569 47.3332L73.6929 45.7643L70.3453 48.9738L70.4889 44.3391L66.4011 42.1461L70.8535 40.8479L71.6766 36.2795L74.284 40.1132L78.88 39.489ZM64.4621 25.0656L63.8379 29.6616L67.6716 32.2745L63.1087 33.1031L61.8106 37.5556L59.6175 33.4677L54.9828 33.6114L58.1923 30.2638L56.6179 25.8942L60.7941 27.9105L64.4621 25.0656ZM11 39.489L15.596 40.1132L18.2089 36.2795L19.0375 40.8424L23.49 42.1405L19.4021 44.3336L19.5458 48.9683L16.1926 45.7588L11.8231 47.3277L13.8394 43.1515L11 39.489ZM25.4179 25.0656L29.0859 27.905L33.2621 25.8887L31.6988 30.2527L34.9083 33.6003L30.2735 33.4567L28.0805 37.5445L26.7823 33.0921L22.2139 32.269L26.0476 29.6561L25.4179 25.0656ZM44.94 20L46.6967 24.2922L51.3203 24.6347L47.7849 27.6343L48.8897 32.1419L44.9455 29.7003L41.0013 32.1419L42.1061 27.6343L38.5597 24.6347L43.1833 24.2922L44.94 20Z" fill="white"/>
</svg>
