<svg width="202" height="53" viewBox="0 0 202 53" fill="none" xmlns="http://www.w3.org/2000/svg">
<path d="M50.0484 0H2.91949C1.31538 0 0 1.31538 0 2.91949V50.0484C0 51.6525 1.31538 53 2.91949 53H50.0805C51.6846 53 53 51.6846 53 50.0484V2.91949C52.9679 1.31538 51.6846 0 50.0484 0ZM44.7869 27.1416L42.4128 27.0775C39.2688 26.9812 38.7234 26.7567 37.6967 25.0884C36.4455 23.0993 34.681 21.6235 32.7561 20.9498C31.5369 20.5327 29.3874 20.3723 28.2004 20.6289C26.5962 20.9498 24.9921 21.8801 23.5805 23.3238C20.4364 26.4679 19.891 30.1895 21.9764 33.8148C22.6822 35.0339 24.5109 36.7022 25.9225 37.4722C28.5854 38.8517 31.1199 38.8517 33.7506 37.5684C35.0339 36.9268 36.6059 35.5472 37.3438 34.3602C38.6592 32.2748 39.3008 31.954 42.6053 31.954H44.7548V32.3069C44.7548 33.526 43.3111 36.8947 42.0599 38.563C37.7288 44.4019 29.9328 46.391 23.3238 43.4074C21.816 42.7337 20.3723 41.6749 18.8323 40.2312C18.0944 39.4933 17.2603 38.8517 17.0357 38.7554C16.8111 38.6592 15.7845 38.595 14.79 38.595H12.4159C12.2554 38.595 12.1592 38.4667 12.1592 38.3384V32.8523C12.1592 32.724 12.2554 32.5956 12.4159 32.5956H14.9183C16.6507 32.5956 17.132 32.5636 17.5811 32.339C18.9927 31.6332 19.089 29.1949 17.7736 28.3287C17.4207 27.9758 17.0036 27.9116 14.7258 27.8795C13.1858 27.8475 11.9988 27.7512 11.9346 27.655C11.7742 27.5587 11.71 26.9812 11.71 25.6979C11.71 23.0672 11.4534 22.7464 9.56053 22.7464C9.40012 22.7464 9.23971 22.7464 9.14346 22.7143H8.46973C8.30932 22.7143 8.18099 22.618 8.18099 22.4576V20.0515C8.18099 19.891 8.27724 19.7948 8.43765 19.7948H10.8438C10.9722 19.7948 11.1005 19.891 11.1005 20.0515V21.2064C11.1005 22.2972 11.1326 22.3614 11.5817 22.8105L12.0309 23.2276L14.9183 23.2918C17.9982 23.3239 18.0303 23.3239 18.0303 24.0938V24.5109H20.276V22.2651H19.859C19.0248 22.2651 18.9607 22.1689 18.9607 21.0781C18.9607 20.5006 18.8644 19.9873 18.7682 19.9231C18.6398 19.7948 18.1586 19.6985 17.5811 19.6985C16.2016 19.6985 16.0732 19.5381 16.0732 17.549V16.0732L14.1804 14.1162L12.2554 12.1913H10.7155C9.91344 12.1913 9.36804 12.1592 9.11138 12.063C8.91889 12.0309 8.79056 11.8705 8.79056 11.678V8.66223C8.79056 8.43765 8.98305 8.27724 9.17554 8.27724H12.1913C12.4159 8.27724 12.5763 8.46973 12.5763 8.66223V9.6247C12.5763 9.81719 12.6084 9.94552 12.6084 10.1701L12.6404 11.7742L16.4903 15.6241L20.5969 15.6562C25.5054 15.7203 25.8584 15.6883 26.5 15.0145C27.0133 14.5333 27.0454 14.437 27.0454 13.4425C27.0454 12.4479 27.0454 12.4159 26.5 11.8705C26.0829 11.4534 25.8904 11.3571 25.3771 11.293H24.0938C23.9013 11.293 23.7088 11.1005 23.7088 10.908V9.20763C23.7088 8.98305 23.9013 8.82264 24.0938 8.82264H25.8263C26.0508 8.82264 26.2113 9.01513 26.2113 9.20763V10.4909C26.2754 11.0363 26.4038 11.1646 26.885 11.6138L27.4946 12.1913H29.0024C30.6065 12.1913 30.8311 12.2875 30.8311 12.9613C30.8311 13.7633 31.3765 14.1162 33.2373 14.5654C34.1998 14.822 35.4831 15.2391 36.1247 15.5278C39.4292 17.0357 42.1883 19.7948 43.664 23.0351C44.2094 24.1901 44.7869 26.1471 44.7869 26.7246V27.1416Z" fill="#F70539"/>
<path d="M76.5535 23.6756L80.8525 24.1568C80.5638 26.7234 79.6013 28.8408 77.8689 30.5091C76.1364 32.1774 73.9227 33.0115 71.1316 33.0115C68.7896 33.0115 66.8967 32.434 65.4209 31.247C63.9451 30.0599 62.8223 28.4558 62.0523 26.4667C61.2823 24.4776 60.8652 22.2319 60.8652 19.7936C60.8652 15.8796 61.7956 12.7034 63.6564 10.2652C65.5172 7.82689 68.0517 6.57568 71.292 6.57568C73.8265 6.57568 75.9439 7.34566 77.6443 8.91769C79.3447 10.4897 80.4034 12.7355 80.8525 15.655L76.5535 16.04C75.7514 12.158 74.019 10.2331 71.3241 10.2331C69.5916 10.2331 68.2442 11.0351 67.2817 12.6392C66.3192 14.2434 65.838 16.5854 65.838 19.6332C65.838 22.7452 66.3513 25.0872 67.3779 26.6592C68.4046 28.2313 69.752 29.0333 71.4524 29.0333C72.7999 29.0333 73.9548 28.4879 74.9173 27.4292C75.8798 26.3705 76.4252 25.1513 76.5535 23.6756Z" fill="white"/>
<path d="M100.289 32.5609H84.5049V6.89502H89.3814V28.3581H100.289V32.5609Z" fill="white"/>
<path d="M120.34 32.5609H103.657V6.89502H120.148V10.7128H108.277V17.6747H117.838V21.3962H108.277V28.5827H120.34V32.5609Z" fill="white"/>
<path d="M124.224 32.5609V6.89502H133.688C137.185 6.89502 139.976 8.14623 142.093 10.6166C144.211 13.0869 145.27 16.1347 145.27 19.7921C145.27 23.4495 144.179 26.4652 141.997 28.9035C139.816 31.3418 136.704 32.5609 132.629 32.5609H124.224ZM128.972 28.8072H132.822C134.875 28.8072 136.639 28.0373 138.083 26.4652C139.527 24.8932 140.233 22.5833 140.233 19.5355C140.233 17.033 139.591 14.9156 138.34 13.1832C137.089 11.4507 135.42 10.5845 133.335 10.5845H128.972V28.8072Z" fill="white"/>
<path d="M174.727 32.5609H170.011V10.1033L162.92 32.5609H160.482L153.328 10.1033V32.5609H149.542V6.89502H156.793L162.182 23.4174L167.476 6.89502H174.759V32.5609H174.727Z" fill="white"/>
<path d="M200.516 32.5609H195.576L193.522 26.4652H183.641L181.62 32.5609H177.674L186.176 6.89502H191.886L200.516 32.5609ZM192.271 22.7758L188.518 11.3224L184.796 22.7758H192.271Z" fill="white"/>
<path d="M69.0426 43.8733L70.1976 44.0016C70.1334 44.6753 69.8447 45.2528 69.3955 45.702C68.9464 46.1511 68.3368 46.3757 67.5989 46.3757C66.9573 46.3757 66.444 46.2153 66.059 45.8945C65.674 45.5736 65.3532 45.1566 65.1607 44.6112C64.9361 44.0658 64.8398 43.4562 64.8398 42.8146C64.8398 41.7558 65.0965 40.9217 65.5777 40.248C66.0911 39.5742 66.7648 39.2534 67.631 39.2534C68.3047 39.2534 68.8822 39.478 69.3314 39.8951C69.7805 40.3121 70.0693 40.9217 70.1976 41.6917L69.0426 41.82C68.8181 40.7613 68.3689 40.248 67.631 40.248C67.1498 40.248 66.7969 40.4725 66.5402 40.8896C66.2836 41.3067 66.1552 41.9483 66.1552 42.7825C66.1552 43.6166 66.2836 44.2583 66.5723 44.6753C66.861 45.0924 67.2139 45.317 67.6631 45.317C68.016 45.317 68.3368 45.1886 68.5935 44.8999C68.8501 44.6112 69.0106 44.2903 69.0426 43.8733Z" fill="#D41E44"/>
<path d="M73.6354 46.2781H72.4805V39.3804H73.6354V46.2781Z" fill="#D41E44"/>
<path d="M79.6313 44.6416L80.6579 44.7699C80.5296 45.219 80.2729 45.604 79.8559 45.9249C79.4709 46.2136 78.9576 46.374 78.3801 46.374C77.6743 46.374 77.0968 46.1494 76.6797 45.6682C76.2627 45.187 76.0381 44.5453 76.0381 43.7433C76.0381 42.9733 76.2627 42.3316 76.6797 41.8183C77.1289 41.305 77.7064 41.0483 78.4443 41.0483C79.1822 41.0483 79.7275 41.305 80.1446 41.7862C80.5296 42.2996 80.7542 42.9412 80.7542 43.7112V43.8395H77.2572C77.2572 44.1924 77.2893 44.4811 77.3535 44.6736C77.4176 44.8661 77.546 45.0586 77.7384 45.219C77.9309 45.3795 78.1876 45.4436 78.4763 45.4436C79.0538 45.4757 79.4388 45.187 79.6313 44.6416ZM79.5671 43.1337C79.5671 42.7808 79.4388 42.46 79.2463 42.2354C79.0217 42.0108 78.7651 41.8825 78.4443 41.8825C78.1234 41.8825 77.8668 41.9787 77.6422 42.2033C77.4176 42.4279 77.2893 42.7166 77.2572 43.1337H79.5671Z" fill="#D41E44"/>
<path d="M86.9135 41.1772L85.1811 46.2783H84.2186L82.4541 41.1772H83.6732L84.8603 44.6421L86.0152 41.1772H86.9135Z" fill="#D41E44"/>
<path d="M92.2075 44.6416L93.2341 44.7699C93.1058 45.219 92.8491 45.604 92.432 45.9249C92.0471 46.2136 91.5337 46.374 90.9563 46.374C90.2505 46.374 89.673 46.1494 89.2559 45.6682C88.8388 45.187 88.6143 44.5453 88.6143 43.7433C88.6143 42.9733 88.8388 42.3316 89.2559 41.8183C89.7051 41.305 90.2825 41.0483 91.0204 41.0483C91.7583 41.0483 92.3037 41.305 92.7208 41.7862C93.1058 42.2996 93.3304 42.9412 93.3304 43.7112V43.8395H89.8334C89.8334 44.1924 89.8655 44.4811 89.9296 44.6736C89.9938 44.8661 90.1221 45.0586 90.3146 45.219C90.5071 45.3795 90.7638 45.4436 91.0525 45.4436C91.63 45.4757 92.015 45.187 92.2075 44.6416ZM92.1433 43.1337C92.1433 42.7808 92.015 42.46 91.8225 42.2354C91.5979 42.0108 91.3413 41.8825 91.0204 41.8825C90.6996 41.8825 90.443 41.9787 90.2184 42.2033C89.9938 42.4279 89.8655 42.7166 89.8334 43.1337H92.1433Z" fill="#D41E44"/>
<path d="M96.9264 46.2778H95.7715V41.1767H96.7981V42.3958C96.9585 41.9146 97.151 41.5617 97.4077 41.3692C97.6643 41.1446 97.921 41.0483 98.2097 41.0483C98.2418 41.0483 98.306 41.0483 98.3702 41.0483V42.2996C97.7927 42.2996 97.4077 42.492 97.2152 42.845C97.0227 43.1979 96.9264 43.5828 96.9264 43.9358V46.2778Z" fill="#D41E44"/>
<path d="M104.562 46.2781V39.3804H107.097C108.027 39.3804 108.797 39.7012 109.375 40.3749C109.952 41.0487 110.241 41.8507 110.241 42.8453C110.241 43.8398 109.952 44.6419 109.375 45.2835C108.797 45.9572 107.963 46.2781 106.872 46.2781H104.562ZM105.846 45.2514H106.872C107.418 45.2514 107.899 45.0269 108.284 44.6098C108.669 44.1927 108.862 43.5832 108.862 42.749C108.862 42.0753 108.701 41.4978 108.348 41.0487C107.995 40.5995 107.546 40.3428 107.001 40.3428H105.814V45.2514H105.846Z" fill="#D41E44"/>
<path d="M113.831 40.5674H112.676V39.3804H113.831V40.5674ZM113.831 46.2781H112.676V41.177H113.831V46.2781Z" fill="#D41E44"/>
<path d="M121.242 40.1816V41.0799H120.889C120.729 41.0799 120.601 41.112 120.472 41.1441C120.344 41.1762 120.248 41.3045 120.12 41.497C120.537 41.8178 120.729 42.2028 120.729 42.5878C120.729 43.037 120.537 43.422 120.152 43.7107C119.767 43.9994 119.285 44.1598 118.644 44.1598C118.387 44.1598 118.066 44.1278 117.713 44.0315C117.489 44.1278 117.36 44.2882 117.36 44.5448C117.36 44.6732 117.425 44.8015 117.521 44.8977C117.649 44.994 117.81 45.0582 118.034 45.0582H119.542C120.055 45.0582 120.472 45.1865 120.761 45.4431C121.05 45.6998 121.21 46.0527 121.21 46.4377C121.21 46.9189 120.986 47.3039 120.537 47.6247C120.087 47.9456 119.414 48.106 118.547 48.106C116.911 48.106 116.077 47.6568 116.077 46.7264C116.077 46.2773 116.334 45.9244 116.815 45.6998C116.494 45.4431 116.334 45.1544 116.334 44.8657C116.334 44.4165 116.59 44.0636 117.136 43.8069C116.655 43.5182 116.43 43.1332 116.43 42.6199C116.43 42.2028 116.59 41.8178 116.943 41.5291C117.296 41.2404 117.81 41.0799 118.515 41.0799C118.836 41.0799 119.157 41.112 119.51 41.1762C119.67 40.5345 120.087 40.2137 120.729 40.2137H121.242V40.1816ZM117.36 45.9885C117.2 46.149 117.104 46.2773 117.104 46.4377C117.104 46.6623 117.232 46.8868 117.521 47.0473C117.81 47.2077 118.227 47.3039 118.836 47.3039C119.735 47.3039 120.184 47.0793 120.184 46.6302C120.184 46.4698 120.12 46.3414 119.959 46.2452C119.799 46.149 119.638 46.1169 119.414 46.1169H118.195C117.97 46.1169 117.681 46.0848 117.36 45.9885ZM118.644 43.4861C119.285 43.4861 119.574 43.1974 119.574 42.5878C119.574 42.3632 119.51 42.1707 119.35 42.0103C119.189 41.8499 118.965 41.7858 118.676 41.7858C118.387 41.7858 118.13 41.882 117.97 42.0424C117.81 42.2028 117.713 42.3953 117.713 42.652C117.713 42.9086 117.81 43.1011 117.97 43.2615C118.13 43.3899 118.355 43.4861 118.644 43.4861Z" fill="#D41E44"/>
<path d="M124.483 40.5674H123.328V39.3804H124.483V40.5674ZM124.483 46.2781H123.328V41.177H124.483V46.2781Z" fill="#D41E44"/>
<path d="M129.612 45.381V46.2793C129.259 46.3435 129.002 46.3756 128.81 46.3756C128.489 46.3756 128.232 46.3114 128.008 46.1831C127.783 46.0547 127.623 45.8943 127.527 45.6697C127.43 45.4452 127.366 45.1243 127.366 44.6752V42.0444H126.725V41.1782H127.43L127.527 39.8628L128.457 39.7666V41.1782H129.484V42.0765H128.457V44.5789C128.457 44.8998 128.521 45.1243 128.617 45.2206C128.714 45.3168 128.938 45.381 129.291 45.381C129.42 45.381 129.516 45.381 129.612 45.381Z" fill="#D41E44"/>
<path d="M136.322 46.2786H135.231C135.135 45.9578 135.071 45.6369 135.038 45.252C134.75 46.0219 134.172 46.3748 133.306 46.3748C132.793 46.3748 132.376 46.2144 132.087 45.9257C131.766 45.6369 131.638 45.252 131.638 44.8028C131.638 43.6158 132.664 43.0383 134.718 43.0383C134.782 43.0383 134.91 43.0383 135.038 43.0383V42.6533C135.038 42.1079 134.686 41.8512 133.948 41.8512C133.242 41.8512 132.857 42.1079 132.761 42.6533L131.766 42.4929C131.83 42.0758 132.055 41.7229 132.44 41.4342C132.825 41.1454 133.37 41.0171 134.108 41.0171C134.493 41.0171 134.814 41.0492 135.071 41.1133C135.327 41.1775 135.52 41.2737 135.712 41.4342C135.873 41.5946 136.001 41.755 136.065 41.9475C136.129 42.14 136.161 42.4287 136.161 42.8779V45.1878C136.193 45.5728 136.225 45.9257 136.322 46.2786ZM135.071 43.6799C133.595 43.6799 132.825 44.0328 132.825 44.7386C132.825 44.9632 132.889 45.1236 133.049 45.284C133.21 45.4444 133.434 45.5086 133.723 45.5086C134.172 45.5086 134.493 45.3803 134.718 45.0915C134.942 44.8028 135.038 44.5141 135.038 44.1612V43.6799H135.071Z" fill="#D41E44"/>
<path d="M140.073 46.2781H138.918V39.3804H140.073V46.2781Z" fill="#D41E44"/>
<path d="M153.646 46.2781H152.363V40.2466L150.47 46.2781H149.829L147.904 40.2466V46.2781H146.877V39.3804H148.834L150.278 43.8077L151.689 39.3804H153.646V46.2781Z" fill="#D41E44"/>
<path d="M160.836 46.2786H159.746C159.649 45.9578 159.585 45.6369 159.553 45.252C159.264 46.0219 158.687 46.3748 157.821 46.3748C157.307 46.3748 156.89 46.2144 156.602 45.9257C156.281 45.6369 156.152 45.252 156.152 44.8028C156.152 43.6158 157.179 43.0383 159.232 43.0383C159.296 43.0383 159.425 43.0383 159.553 43.0383V42.6533C159.553 42.1079 159.2 41.8512 158.462 41.8512C157.756 41.8512 157.371 42.1079 157.275 42.6533L156.281 42.4929C156.345 42.0758 156.569 41.7229 156.954 41.4342C157.339 41.1454 157.885 41.0171 158.623 41.0171C159.008 41.0171 159.329 41.0492 159.585 41.1133C159.842 41.1775 160.034 41.2737 160.227 41.4342C160.387 41.5946 160.516 41.755 160.58 41.9475C160.644 42.14 160.676 42.4287 160.676 42.8779V45.1878C160.708 45.5728 160.74 45.9257 160.836 46.2786ZM159.585 43.6799C158.109 43.6799 157.339 44.0328 157.339 44.7386C157.339 44.9632 157.404 45.1236 157.564 45.284C157.724 45.4444 157.949 45.5086 158.238 45.5086C158.687 45.5086 159.008 45.3803 159.232 45.0915C159.457 44.8028 159.553 44.5141 159.553 44.1612V43.6799H159.585Z" fill="#D41E44"/>
<path d="M164.621 46.2778H163.466V41.1767H164.492V42.3958C164.653 41.9146 164.845 41.5617 165.102 41.3692C165.359 41.1446 165.615 41.0483 165.904 41.0483C165.936 41.0483 166 41.0483 166.064 41.0483V42.2996C165.487 42.2996 165.102 42.492 164.91 42.845C164.717 43.1979 164.621 43.5828 164.621 43.9358V46.2778Z" fill="#D41E44"/>
<path d="M172.961 46.2781H171.742L170.427 43.6473L169.304 44.9306V46.2781H168.213V39.3804H169.304V43.6473C169.4 43.519 169.464 43.4227 169.528 43.3586L171.549 41.1449H172.801L171.261 42.8453L172.961 46.2781Z" fill="#D41E44"/>
<path d="M178.224 44.6416L179.251 44.7699C179.122 45.219 178.866 45.604 178.449 45.9249C178.064 46.2136 177.55 46.374 176.973 46.374C176.267 46.374 175.69 46.1494 175.273 45.6682C174.855 45.187 174.631 44.5453 174.631 43.7433C174.631 42.9733 174.855 42.3316 175.273 41.8183C175.722 41.305 176.299 41.0483 177.037 41.0483C177.775 41.0483 178.32 41.305 178.737 41.7862C179.122 42.2996 179.347 42.9412 179.347 43.7112V43.8395H175.85C175.85 44.1924 175.882 44.4811 175.946 44.6736C176.01 44.8661 176.139 45.0586 176.331 45.219C176.524 45.3795 176.78 45.4436 177.069 45.4436C177.615 45.4757 178 45.187 178.224 44.6416ZM178.128 43.1337C178.128 42.7808 177.999 42.46 177.807 42.2354C177.582 42.0108 177.326 41.8825 177.005 41.8825C176.684 41.8825 176.427 41.9787 176.203 42.2033C175.978 42.4279 175.85 42.7166 175.818 43.1337H178.128Z" fill="#D41E44"/>
<path d="M184.059 45.381V46.2793C183.706 46.3435 183.45 46.3756 183.257 46.3756C182.936 46.3756 182.68 46.3114 182.455 46.1831C182.231 46.0547 182.07 45.8943 181.974 45.6697C181.878 45.4452 181.814 45.1243 181.814 44.6752V42.0444H181.172V41.1782H181.878L181.974 39.8628L182.904 39.7666V41.1782H183.931V42.0765H182.904V44.5789C182.904 44.8998 182.968 45.1243 183.065 45.2206C183.161 45.3168 183.386 45.381 183.738 45.381C183.867 45.381 183.963 45.381 184.059 45.381Z" fill="#D41E44"/>
<path d="M187.557 40.5674H186.402V39.3804H187.557V40.5674ZM187.557 46.2781H186.402V41.177H187.557V46.2781Z" fill="#D41E44"/>
<path d="M194.547 46.2808H193.392V43.1047C193.392 42.7518 193.328 42.5272 193.168 42.3347C193.007 42.1743 192.815 42.078 192.622 42.078C192.334 42.078 192.045 42.2064 191.82 42.463C191.596 42.7197 191.467 43.1368 191.467 43.6501V46.2808H190.312V41.1797H191.371V42.3668C191.724 41.5006 192.237 41.0835 192.911 41.0835C193.36 41.0835 193.745 41.2118 194.066 41.5006C194.387 41.7893 194.547 42.2705 194.547 42.9764V46.2808Z" fill="#D41E44"/>
<path d="M201.965 40.1816V41.0799H201.612C201.452 41.0799 201.323 41.112 201.195 41.1441C201.067 41.1762 200.971 41.3045 200.842 41.497C201.259 41.8178 201.452 42.2028 201.452 42.5878C201.452 43.037 201.259 43.422 200.874 43.7107C200.489 43.9994 200.008 44.1598 199.366 44.1598C199.11 44.1598 198.789 44.1278 198.436 44.0315C198.211 44.1278 198.083 44.2882 198.083 44.5448C198.083 44.6732 198.147 44.8015 198.244 44.8977C198.372 44.994 198.532 45.0582 198.757 45.0582H200.265C200.778 45.0582 201.195 45.1865 201.484 45.4431C201.773 45.6998 201.933 46.0527 201.933 46.4377C201.933 46.9189 201.708 47.3039 201.259 47.6247C200.81 47.9456 200.136 48.106 199.27 48.106C197.634 48.106 196.8 47.6568 196.8 46.7264C196.8 46.2773 197.056 45.9244 197.538 45.6998C197.217 45.4431 197.056 45.1544 197.056 44.8657C197.056 44.4165 197.313 44.0636 197.859 43.8069C197.377 43.5182 197.153 43.1332 197.153 42.6199C197.153 42.2028 197.313 41.8178 197.666 41.5291C198.019 41.2404 198.532 41.0799 199.238 41.0799C199.559 41.0799 199.88 41.112 200.233 41.1762C200.393 40.5345 200.81 40.2137 201.452 40.2137H201.965V40.1816ZM198.083 45.9885C197.923 46.149 197.826 46.2773 197.826 46.4377C197.826 46.6623 197.955 46.8868 198.244 47.0473C198.532 47.2077 198.949 47.3039 199.559 47.3039C200.457 47.3039 200.906 47.0793 200.906 46.6302C200.906 46.4698 200.842 46.3414 200.682 46.2452C200.521 46.149 200.361 46.1169 200.136 46.1169H198.917C198.693 46.1169 198.404 46.0848 198.083 45.9885ZM199.366 43.4861C200.008 43.4861 200.297 43.1974 200.297 42.5878C200.297 42.3632 200.233 42.1707 200.072 42.0103C199.912 41.8499 199.687 41.7858 199.398 41.7858C199.11 41.7858 198.853 41.882 198.693 42.0424C198.532 42.2028 198.436 42.3953 198.436 42.652C198.436 42.9086 198.532 43.1011 198.693 43.2615C198.821 43.3899 199.046 43.4861 199.366 43.4861Z" fill="#D41E44"/>
</svg>
