<svg width="48" height="48" viewBox="0 0 48 48" fill="none" xmlns="http://www.w3.org/2000/svg">
<circle cx="24" cy="24" r="24" fill="#F70539"/>
<g clip-path="url(#clip0_272_1936)">
<path fill-rule="evenodd" clip-rule="evenodd" d="M35.3719 16.1398C35.0638 15.3426 34.5924 14.6186 33.9881 14.0142C33.3837 13.4099 32.6597 12.9385 31.8625 12.6304C31.099 12.3334 30.2264 12.1307 28.9499 12.0723C27.6734 12.0139 27.261 12.002 24.0014 12.002C20.7418 12.002 20.3344 12.016 19.0543 12.0723C17.7743 12.1286 16.9045 12.3334 16.1417 12.6304C15.3443 12.9382 14.6202 13.4095 14.0158 14.0139C13.4114 14.6183 12.9402 15.3424 12.6323 16.1398C12.3353 16.9033 12.132 17.7752 12.0743 19.0524C12.0166 20.3296 12.0039 20.7413 12.0039 24.0002C12.0039 27.2591 12.018 27.6679 12.0743 28.948C12.1306 30.228 12.3353 31.0971 12.6323 31.8606C12.9404 32.6578 13.4118 33.3818 14.0161 33.9862C14.6205 34.5905 15.3445 35.0619 16.1417 35.37C16.9045 35.667 17.7771 35.8697 19.0543 35.9281C20.3316 35.9865 20.7432 35.9984 24.0014 35.9984C27.2596 35.9984 27.6698 35.9844 28.9499 35.9281C30.2299 35.8718 31.099 35.667 31.8625 35.37C32.6596 35.0616 33.3834 34.5901 33.9877 33.9858C34.5921 33.3815 35.0635 32.6577 35.3719 31.8606C35.6689 31.0971 35.8716 30.2252 35.93 28.948C35.9884 27.6707 36.0004 27.2591 36.0004 24.0002C36.0004 20.7413 35.987 20.3325 35.93 19.0524C35.873 17.7724 35.6689 16.9033 35.3719 16.1398ZM24.0014 30.1619C22.7826 30.1619 21.5911 29.8004 20.5777 29.1233C19.5643 28.4461 18.7745 27.4836 18.3081 26.3576C17.8417 25.2315 17.7196 23.9924 17.9575 22.797C18.1953 21.6016 18.7823 20.5036 19.6442 19.6418C20.5061 18.78 21.6042 18.1931 22.7997 17.9554C23.9951 17.7177 25.2341 17.8399 26.3601 18.3064C27.4861 18.7729 28.4486 19.5629 29.1256 20.5764C29.8027 21.5899 30.1639 22.7814 30.1638 24.0002C30.1638 24.8094 30.0044 25.6107 29.6947 26.3583C29.385 27.1059 28.9311 27.7852 28.3588 28.3574C27.7866 28.9296 27.1072 29.3834 26.3596 29.693C25.6119 30.0027 24.8106 30.162 24.0014 30.1619V30.1619ZM30.4051 19.0348C30.1202 19.0348 29.8418 18.9503 29.6049 18.7921C29.368 18.6338 29.1834 18.4088 29.0744 18.1456C28.9653 17.8824 28.9368 17.5927 28.9924 17.3133C29.0479 17.0339 29.1851 16.7772 29.3866 16.5757C29.588 16.3743 29.8447 16.2371 30.1241 16.1815C30.4036 16.1259 30.6932 16.1545 30.9564 16.2635C31.2196 16.3725 31.4446 16.5571 31.6029 16.794C31.7612 17.0309 31.8457 17.3094 31.8457 17.5943C31.8457 17.9755 31.6946 18.3412 31.4255 18.6112C31.1564 18.8812 30.7913 19.0335 30.4101 19.0348H30.4051ZM27.9999 24.0002C28 24.7915 27.7655 25.565 27.326 26.223C26.8865 26.881 26.2617 27.3938 25.5307 27.6967C24.7997 27.9996 23.9954 28.079 23.2193 27.9247C22.4432 27.7704 21.7302 27.3894 21.1707 26.83C20.6111 26.2705 20.2301 25.5577 20.0757 24.7816C19.9212 24.0056 20.0004 23.2011 20.3032 22.4701C20.606 21.739 21.1187 21.1142 21.7766 20.6746C22.4345 20.235 23.2081 20.0003 23.9993 20.0003C24.5248 19.9999 25.0452 20.1031 25.5309 20.304C26.0165 20.5048 26.4578 20.7994 26.8295 21.1709C27.2012 21.5423 27.496 21.9834 27.6972 22.4689C27.8984 22.9543 28.002 23.4747 28.002 24.0002H27.9999Z" fill="white"/>
</g>
<defs>
<clipPath id="clip0_272_1936">
<rect width="24" height="24" fill="white" transform="translate(12 12)"/>
</clipPath>
</defs>
</svg>
