<svg width="48" height="48" viewBox="0 0 48 48" fill="none" xmlns="http://www.w3.org/2000/svg">
<path d="M19.0154 36.4833C19.3565 36.4833 19.6977 36.3577 19.9669 36.0884C20.4876 35.5677 20.4876 34.706 19.9669 34.1854L10.021 24.2394L19.9669 14.2935C20.4876 13.7729 20.4876 12.9111 19.9669 12.3905C19.4463 11.8698 18.5846 11.8698 18.0639 12.3905L7.16649 23.2879C6.64585 23.8086 6.64585 24.6703 7.16649 25.1909L18.0639 36.0884C18.3332 36.3577 18.6743 36.4833 19.0154 36.4833Z" fill="#6F6668"/>
<path d="M8.6181 25.4644H39.9373C40.7003 25.4644 41.333 24.854 41.333 24.118C41.333 23.3819 40.7003 22.7715 39.9373 22.7715H8.6181C7.85513 22.7715 7.22241 23.3819 7.22241 24.118C7.22241 24.854 7.85513 25.4644 8.6181 25.4644Z" fill="#6F6668"/>
<circle r="14" transform="matrix(-1 0 0 1 14 24)" fill="#F70539" fill-opacity="0.2"/>
</svg>
