<svg width="48" height="48" viewBox="0 0 48 48" fill="none" xmlns="http://www.w3.org/2000/svg">
<circle cx="24" cy="24" r="24" fill="white"/>
<g clip-path="url(#clip0_199_2128)">
<path fill-rule="evenodd" clip-rule="evenodd" d="M12.3979 19.9704H17.38V36.0009H12.3979V19.9704ZM36.0374 27.208V36.0009H31.0584V28.2048C31.0584 26.3462 31.0239 23.9546 28.4689 23.9546C25.8764 23.9546 25.4785 25.9798 25.4785 28.0709V36.0009H20.5004V19.9704H25.2795V22.161H25.3455C26.0114 20.9002 27.6366 19.5715 30.0606 19.5715C35.1096 19.5715 36.0424 22.8919 36.0424 27.2061L36.0374 27.208ZM17.774 14.8938C17.7742 15.4653 17.6049 16.024 17.2875 16.4992C16.9702 16.9744 16.5189 17.3449 15.991 17.5637C15.4631 17.7824 14.8821 17.8397 14.3216 17.7283C13.7611 17.6168 13.2463 17.3417 12.8422 16.9376C12.4382 16.5335 12.163 16.0187 12.0516 15.4582C11.9401 14.8977 11.9974 14.3167 12.2162 13.7888C12.4349 13.2609 12.8054 12.8097 13.2807 12.4923C13.7559 12.175 14.3145 12.0057 14.886 12.0059C15.6517 12.0066 16.3858 12.3112 16.9272 12.8526C17.4686 13.394 17.7732 14.1281 17.774 14.8938Z" fill="#6F6668"/>
</g>
<defs>
<clipPath id="clip0_199_2128">
<rect width="24.0414" height="24" fill="white" transform="translate(12 12)"/>
</clipPath>
</defs>
</svg>
