<svg width="48" height="48" viewBox="0 0 48 48" fill="none" xmlns="http://www.w3.org/2000/svg">
<path d="M23.0768 2.0117C19.5125 2.30453 16.313 3.73206 13.862 6.125C11.0601 8.87025 9.57264 12.6404 9.81587 16.4014C9.90007 17.7191 10.1012 18.7028 10.5503 20.0114C11.0227 21.384 11.177 21.6448 15.1764 27.7439C17.169 30.7911 18.8108 33.3076 18.8249 33.3442C18.8436 33.3945 18.7781 33.4128 18.5536 33.4403C15.9715 33.7102 13.165 34.4972 11.3174 35.458C9.71297 36.2953 8.65116 37.247 8.10389 38.3359C7.78581 38.9719 7.69694 39.3837 7.72033 40.1387C7.73904 40.6877 7.75775 40.8113 7.88872 41.191C8.41728 42.6963 9.71765 43.8493 11.9863 44.833C14.2783 45.8213 17.328 46.4482 21.2759 46.741C22.2956 46.8142 25.9675 46.8142 26.9825 46.741C32.2167 46.3475 35.9354 45.3684 38.2648 43.7578C39.3734 42.9892 40.1171 42.0512 40.4165 41.0309C40.5615 40.5413 40.5708 39.4569 40.4352 38.9994C39.8692 37.0777 37.9186 35.5907 34.6116 34.5429C33.8538 34.305 32.4225 33.9344 32.3898 33.971C32.3711 33.9893 29.9808 37.6359 29.9107 37.7503C29.892 37.7869 29.9153 37.8144 29.9855 37.8281C31.4355 38.1118 32.6657 38.432 33.6948 38.7935C34.4713 39.0634 35.5518 39.585 35.8231 39.8138L36.0336 39.9968L35.9166 40.0929C35.3694 40.5505 34.2327 41.0675 32.9464 41.4381C30.355 42.1885 27.5906 42.5362 24.1292 42.5362C22.0524 42.5362 20.6865 42.4447 18.8903 42.1976C16.1072 41.8133 13.3895 40.9531 12.4447 40.1615L12.2435 39.9923L12.3745 39.8596C12.8282 39.3929 14.732 38.6288 16.5048 38.2033C17.7069 37.915 19.5779 37.6176 20.8315 37.5124L21.159 37.4849L22.623 39.7772C23.4322 41.0354 24.1058 42.0649 24.1198 42.0649C24.1386 42.0603 26.9544 37.6359 30.3737 32.2278C34.7473 25.3097 36.7118 22.1618 36.9925 21.6265C37.9935 19.7048 38.4519 17.8243 38.4519 15.6647C38.4566 13.5097 37.9935 11.5835 37.0252 9.69383C34.9063 5.55307 30.8321 2.74377 26.0002 2.09863C25.481 2.03 23.5726 1.9751 23.0768 2.0117ZM25.1489 8.36695C26.4165 8.56828 27.5859 9.1585 28.5027 10.0599C29.3681 10.9109 29.9013 11.8672 30.1352 13.011C30.5702 15.1386 29.6861 17.3668 27.8806 18.6983C27.1415 19.2382 26.2996 19.6179 25.3921 19.8101C24.901 19.9153 23.4276 19.9336 22.9832 19.8375C21.6969 19.563 20.6117 18.9957 19.7557 18.1584C17.763 16.2138 17.4543 13.2306 19.0073 10.9475C19.3581 10.4305 19.9615 9.80821 20.4573 9.45133C21.1496 8.95261 22.2161 8.50879 23.058 8.37153C23.5913 8.2846 24.611 8.2846 25.1489 8.36695Z" fill="#122F71"/>
</svg>
