<svg width="48" height="48" viewBox="0 0 48 48" fill="none" xmlns="http://www.w3.org/2000/svg">
<path d="M37.3804 23.0601C36.2404 22.7601 34.9004 22.6001 33.3004 22.6001C31.0804 22.6001 30.2604 23.1401 29.1204 24.0001C29.0604 24.0401 29.0004 24.1001 28.9404 24.1601L27.0404 26.1801C25.4604 27.8801 22.5604 27.8801 20.9604 26.1801L19.0604 24.1801C19.0004 24.1001 18.9404 24.0401 18.8804 24.0001C17.7204 23.1401 16.9004 22.6001 14.7004 22.6001C13.1004 22.6001 11.7604 22.7401 10.6204 23.0601C5.86035 24.3401 5.86035 28.1201 5.86035 31.4401V33.3001C5.86035 38.3201 5.86035 44.0001 16.5604 44.0001H31.4404C38.5404 44.0001 42.1404 40.4001 42.1404 33.3001V31.4401C42.1404 28.1201 42.1404 24.3401 37.3804 23.0601Z" fill="#122F71"/>
<path d="M29.5801 4H18.4201C9.58008 4 9.58008 8.7 9.58008 12.84V20.24C9.66008 20.2 9.76008 20.18 9.84008 20.16C11.2401 19.78 12.8201 19.6 14.7001 19.6C17.7801 19.6 19.2401 20.5 20.6801 21.6C20.8801 21.74 21.0801 21.92 21.2601 22.12L23.1401 24.1C23.3401 24.32 23.6601 24.44 24.0001 24.44C24.3401 24.44 24.6601 24.32 24.8401 24.12L26.7601 22.1C26.9201 21.94 27.1001 21.76 27.3001 21.62C28.7801 20.5 30.2201 19.6 33.3001 19.6C35.1801 19.6 36.7601 19.78 38.1601 20.16C38.2401 20.18 38.3401 20.2 38.4201 20.24V12.84C38.4201 8.7 38.4201 4 29.5801 4ZM27.1001 17H20.9001C20.1401 17 19.5001 16.36 19.5001 15.6C19.5001 14.82 20.1401 14.2 20.9001 14.2H27.1001C27.8601 14.2 28.5001 14.82 28.5001 15.6C28.5001 16.36 27.8601 17 27.1001 17ZM28.6601 11.42H19.3401C18.5801 11.42 17.9601 10.78 17.9601 10.02C17.9601 9.24 18.5801 8.62 19.3401 8.62H28.6601C29.4201 8.62 30.0401 9.24 30.0401 10.02C30.0401 10.78 29.4201 11.42 28.6601 11.42Z" fill="#122F71"/>
</svg>
