<svg width="90" height="90" viewBox="0 0 90 90" fill="none" xmlns="http://www.w3.org/2000/svg">
<circle cx="45" cy="45" r="45" fill="#F70539"/>
<path d="M42.7237 23.1655C40.0379 23.7542 37.6955 26.0843 36.9719 28.8682C36.6531 30.1191 36.7144 31.9955 37.1068 33.2219C37.8672 35.6133 39.5719 37.3916 41.9388 38.2868C42.6501 38.5566 42.9567 38.6057 44.2935 38.6057C45.5812 38.618 45.9491 38.5689 46.6358 38.3359C49.3339 37.4038 51.2593 35.2086 51.8235 32.4002C52.0687 31.2106 52.0687 30.4502 51.8235 29.2606C51.2103 26.256 48.8188 23.7664 45.9491 23.1655C44.8944 22.9447 43.7538 22.9447 42.7237 23.1655Z" fill="white"/>
<path d="M23.6273 24.3052C22.1065 24.8325 20.917 25.8627 20.2179 27.2608C18.4887 30.7192 20.3038 34.8276 23.9952 35.7964C27.2083 36.6304 30.5073 34.337 31.0469 30.9032C31.5007 28.0211 29.7469 25.1759 27.0121 24.3297C26.0187 24.0231 24.4857 24.0109 23.6273 24.3052Z" fill="white"/>
<path d="M63.0313 24.3183C60.2474 25.2259 58.555 28.0098 59.0088 30.904C59.3767 33.2832 61.0937 35.1964 63.387 35.7973C67.3482 36.8275 71.1255 33.1851 70.4142 29.0031C70.0953 27.09 68.8935 25.4834 67.152 24.6249C66.269 24.1834 66.1218 24.1466 64.969 24.1221C64.0247 24.0976 63.571 24.1344 63.0313 24.3183Z" fill="white"/>
<path d="M24.5237 37.3672C24.1313 37.6492 23.8247 37.9313 23.8124 37.9804C23.8124 38.0417 24.1558 38.4341 24.5605 38.8634L25.3086 39.6482L24.5237 40.519L23.7266 41.3897L24.536 45.4368C25.0756 48.1348 25.3699 49.3858 25.4312 49.2018C25.4803 49.0424 25.8605 47.2151 26.2652 45.1425L27.0255 41.3652L26.2774 40.5803C25.8605 40.1511 25.5294 39.7464 25.5294 39.685C25.5294 39.6237 25.8605 39.2067 26.2652 38.7652L27.0133 37.9558L26.2407 37.3917C25.8237 37.0851 25.419 36.8398 25.3454 36.8398C25.2841 36.8398 24.9039 37.0851 24.5237 37.3672Z" fill="white"/>
<path d="M63.9397 37.3914L63.1671 37.9556L63.9152 38.7773C64.3199 39.231 64.651 39.6357 64.651 39.6848C64.651 39.7338 64.3076 40.1385 63.9029 40.58L63.1426 41.3772L63.9152 45.2771C64.3444 47.411 64.7246 49.2261 64.7614 49.3119C64.8105 49.3978 65.2029 47.644 65.6444 45.4243L66.4538 41.3895L65.6567 40.5187L64.8718 39.648L65.6199 38.8631C66.0246 38.4339 66.368 38.0414 66.368 37.9801C66.3557 37.8697 64.9454 36.8396 64.7982 36.8396C64.7491 36.8396 64.3567 37.0848 63.9397 37.3914Z" fill="white"/>
<path d="M19.8262 37.22C18.2932 37.6002 16.9074 38.336 15.8895 39.3539C15.4112 39.82 14.8715 40.5068 14.6876 40.8501C14.0131 42.1992 14.0008 42.3586 14.0008 49.349C14.0008 56.7441 13.9272 56.2536 15.1781 56.9158C16.0366 57.3696 17.2753 57.7252 18.9064 57.995C20.4761 58.2403 25.3817 58.4733 26.9637 58.3629L28.2269 58.2771V53.0527C28.2269 47.2274 28.276 46.7859 29.0118 45.2651C30.0297 43.1435 31.7834 41.4511 34.2239 40.2247L35.1192 39.7709L34.8371 39.4521C34.3711 38.9615 33.0957 38.0908 32.3353 37.7596C31.5014 37.3795 29.8212 36.9625 29.1835 36.9625C28.8033 36.9625 28.7052 37.0116 28.6561 37.2323C28.6193 37.3917 27.8712 41.353 27.0005 46.0378C26.1175 50.7226 25.3817 54.6102 25.3572 54.6838C25.3326 54.7451 25.2836 54.6715 25.2345 54.4998C25.1609 54.2178 21.727 37.0729 21.727 36.9993C21.727 36.8889 20.6724 37.0116 19.8262 37.22Z" fill="white"/>
<path d="M59.2537 37.2199C57.8066 37.5878 56.4085 38.3359 55.4151 39.2802L54.5566 40.1019L55.1576 40.4575C57.2792 41.6839 58.898 43.6461 59.7075 45.9763L60.0386 46.9574L60.0876 52.562L60.1244 58.1543L60.5782 58.2279C62.5404 58.5099 68.5497 58.3873 71.1742 57.9949C73.3939 57.6637 74.9882 57.0628 75.6137 56.3392L75.9326 55.9468V49.4224C75.9326 42.3462 75.9203 42.199 75.2458 40.85C74.5222 39.4151 72.5723 37.9434 70.61 37.3425C69.7148 37.0727 68.0837 36.8642 68.0837 37.0237C68.0837 37.2567 64.8706 54.3402 64.7847 54.5487C64.7234 54.7081 64.0611 51.6054 62.9329 45.8782L61.1669 36.9623L60.664 36.9746C60.3942 36.9746 59.7565 37.085 59.2537 37.2199Z" fill="white"/>
<path d="M43.4588 41.402L42.4531 42.1378L43.3729 43.1189C43.8757 43.6586 44.2927 44.1368 44.2927 44.1736C44.2927 44.2227 43.8757 44.7132 43.3729 45.2529L42.4531 46.2585L43.4588 51.2621C44.0106 54.0215 44.4889 56.1677 44.5135 56.0328C44.538 55.8979 44.9917 53.6413 45.5191 51.0169L46.4757 46.2585L45.4946 45.2283L44.5257 44.1859L45.4455 43.2048C45.9606 42.6652 46.3776 42.1746 46.3776 42.1133C46.3776 42.0642 46.1691 41.8803 45.9238 41.7086C45.6663 41.5369 45.237 41.2303 44.9672 41.0341L44.4644 40.6539L43.4588 41.402Z" fill="white"/>
<path d="M38.2818 41.0829C34.7253 41.8433 32.0272 43.9404 30.9971 46.7488C30.7518 47.4233 30.7395 47.6809 30.7027 55.5665C30.6659 64.5437 30.6291 64.1022 31.4508 64.7276C33.4376 66.2484 38.6742 67.0087 45.9467 66.8493C52.79 66.6899 56.3342 65.9295 57.6955 64.3229L58.0266 63.9182V55.9958C58.0266 49.128 58.0021 47.9752 57.8304 47.2762C57.1436 44.5045 54.7399 42.297 51.3428 41.3159C50.19 40.9848 48.4608 40.7763 48.4608 40.9603C48.4731 41.2055 44.4873 62.2994 44.426 62.373C44.3892 62.422 43.3958 57.6759 42.2185 51.8261C41.0412 45.9762 40.0601 41.1197 40.0233 41.0339C39.962 40.8499 39.2997 40.8622 38.2818 41.0829ZM54.1022 51.6789V52.1694H51.3428H48.5834V51.6789V51.1883H51.3428H54.1022V51.6789Z" fill="white"/>
</svg>
