<svg width="48" height="48" viewBox="0 0 48 48" fill="none" xmlns="http://www.w3.org/2000/svg">
<path d="M28.9846 36.4833C28.6435 36.4833 28.3023 36.3577 28.0331 36.0884C27.5124 35.5677 27.5124 34.706 28.0331 34.1854L37.979 24.2394L28.0331 14.2935C27.5124 13.7729 27.5124 12.9111 28.0331 12.3905C28.5537 11.8698 29.4154 11.8698 29.9361 12.3905L40.8335 23.2879C41.3541 23.8086 41.3541 24.6703 40.8335 25.1909L29.9361 36.0884C29.6668 36.3577 29.3257 36.4833 28.9846 36.4833Z" fill="#6F6668"/>
<path d="M39.3819 25.4644H8.06268C7.2997 25.4644 6.66699 24.854 6.66699 24.118C6.66699 23.3819 7.2997 22.7715 8.06268 22.7715H39.3819C40.1449 22.7715 40.7776 23.3819 40.7776 24.118C40.7776 24.854 40.1449 25.4644 39.3819 25.4644Z" fill="#6F6668"/>
<circle cx="34" cy="24" r="14" fill="#F70539" fill-opacity="0.2"/>
</svg>
