<svg width="90" height="90" viewBox="0 0 90 90" fill="none" xmlns="http://www.w3.org/2000/svg">
<circle cx="45" cy="45" r="45" fill="#122F71"/>
<path d="M51.066 12.8491C51.5228 13.3314 52.5635 14.3974 53.3757 15.235L54.8732 16.7579L44.2764 27.3546L33.6797 37.9513L30.4182 34.6898C28.6161 32.9131 26.979 31.3649 26.7633 31.2507C26.1668 30.9588 25.4942 30.8826 24.8343 31.0476C24.2632 31.1872 23.8952 31.5299 18.3493 37.0503C15.1132 40.2611 12.3847 43.053 12.2832 43.2434C11.6106 44.5251 12.1817 46.2257 13.5142 46.911C14.136 47.2282 15.1767 47.2282 15.8493 46.911C16.1792 46.746 17.9179 45.0962 20.9256 42.0885L25.4942 37.5072L28.7303 40.7433C32.0807 44.0809 32.5883 44.4744 33.5401 44.4871C34.7584 44.4871 34.1873 45.0201 46.8273 32.4055L58.6423 20.6032L61.0028 23.0652L63.3759 25.5145V18.7503V11.9989H56.8148H50.2538L51.066 12.8491Z" fill="white"/>
<path d="M55.3427 30.9972C55.292 31.0353 55.2539 34.1572 55.2539 37.9136V44.7539L55.9265 44.6524C56.7514 44.5255 59.15 44.5255 60.051 44.6397L60.7109 44.7285V37.8248V30.9084H58.0712C56.6118 30.9084 55.3808 30.9464 55.3427 30.9972Z" fill="white"/>
<path d="M47.1328 43.1805V49.9954L47.6024 49.4243C48.7572 48.0283 50.3689 46.7465 51.9299 45.9597L52.5898 45.6298V40.9977V36.3656H49.8613H47.1328V43.1805Z" fill="white"/>
<path d="M22.7676 53.9417V63.3962H25.4961H28.2246V53.9417V44.4871H25.4961H22.7676V53.9417Z" fill="white"/>
<path d="M39.0117 53.9417V63.3962H41.7402H44.4687V53.9417V44.4871H41.7402H39.0117V53.9417Z" fill="white"/>
<path d="M56.6246 47.2794C54.0611 47.6855 52.0687 48.6753 50.3554 50.3759C48.2488 52.4952 47.2081 55.0714 47.2208 58.1299C47.2462 61.1376 48.3884 63.8026 50.5077 65.8205C53.8707 68.9931 58.6805 69.7292 62.7542 67.6987L63.4649 67.3433L67.9574 71.8485C72.6276 76.5187 73.1733 76.9756 74.1378 76.9756C75.6987 76.9756 76.9551 75.7192 76.9551 74.1583C76.9551 73.1938 76.4983 72.6481 71.8281 67.9779L67.3229 63.4854L67.6782 62.7747C69.1377 59.8558 69.2011 56.4674 67.8305 53.5613C66.0538 49.7667 62.6654 47.457 58.5409 47.2286C57.881 47.2032 57.018 47.2159 56.6246 47.2794ZM59.9369 50.1348C60.9775 50.3886 62.5004 51.1754 63.3507 51.9242C65.1908 53.5359 66.3584 56.3913 66.1046 58.6756C65.8761 60.7061 65.1274 62.2924 63.6933 63.7138C62.272 65.1479 60.6856 65.8966 58.6551 66.125C56.3708 66.3789 53.5154 65.2113 51.9037 63.3712C51.1549 62.5209 50.3681 60.998 50.1143 59.9574C49.8732 58.904 49.8732 57.0512 50.1143 56.0994C50.863 53.1932 53.122 50.9216 56.0155 50.1475C56.9292 49.9063 58.9216 49.8936 59.9369 50.1348Z" fill="white"/>
<path d="M14.6426 56.6702V63.3962H17.3711H20.0996V56.6702V49.9441H17.3711H14.6426V56.6702Z" fill="white"/>
<path d="M30.8887 56.6702V63.3962H33.6172H36.3457V56.6702V49.9441H33.6172H30.8887V56.6702Z" fill="white"/>
</svg>
