<svg width="90" height="90" viewBox="0 0 90 90" fill="none" xmlns="http://www.w3.org/2000/svg">
<circle cx="45" cy="45" r="45" fill="#122F71"/>
<g clip-path="url(#clip0_251_1928)">
<path d="M41.5527 16C46.1608 15.9994 50.6834 17.2327 54.6417 19.5693C58.6001 21.9059 61.847 25.2589 64.0388 29.2734C66.2306 33.288 67.2858 37.8147 67.0927 42.3746C66.8995 46.9345 65.4653 51.3578 62.9417 55.1764L73.9984 67.1134L66.3731 74.0189L55.7072 62.3792C52.3867 64.5675 48.5952 65.9557 44.636 66.4326C40.6768 66.9096 36.6598 66.4621 32.9066 65.126C29.1533 63.7899 25.7679 61.6022 23.0212 58.738C20.2746 55.8738 18.243 52.4127 17.0891 48.6316C15.9351 44.8504 15.6908 40.8543 16.3757 36.9629C17.0606 33.0715 18.6556 29.3928 21.0333 26.2214C23.4109 23.0499 26.505 20.4737 30.0681 18.6988C33.6312 16.9239 37.5643 15.9996 41.5527 16ZM50.3504 31.4251L49.4544 30.2923C49.389 30.2177 49.3431 30.1283 49.3206 30.0321C49.2982 29.9358 49.3 29.8355 49.3257 29.7401C49.4782 29.2681 50.0263 29.3247 50.4028 29.3483C51.4799 29.4285 54.0248 29.4474 54.5777 29.471C54.6674 29.4714 54.7559 29.4919 54.8365 29.531C54.9172 29.57 54.9878 29.6266 55.0433 29.6965C55.0987 29.7664 55.1375 29.8478 55.1568 29.9346C55.176 30.0214 55.1752 30.1115 55.1543 30.1979C55.04 30.7549 54.5252 33.4264 54.3394 34.446C54.2727 34.8 54.1678 35.2531 53.7198 35.2861C53.6197 35.2907 53.5201 35.2701 53.4301 35.2264C53.3401 35.1827 53.2627 35.1172 53.2051 35.036L52.3091 33.9032L51.9469 33.4311L47.5433 36.7352V36.8107C47.5433 37.1584 47.4742 37.5028 47.3398 37.824C47.2054 38.1453 47.0085 38.4372 46.7602 38.6831C46.512 38.929 46.2172 39.124 45.8928 39.2571C45.5685 39.3902 45.2208 39.4587 44.8697 39.4587C44.5186 39.4587 44.1709 39.3902 43.8465 39.2571C43.5222 39.124 43.2274 38.929 42.9792 38.6831C42.7309 38.4372 42.534 38.1453 42.3996 37.824C42.2652 37.5028 42.1961 37.1584 42.1961 36.8107C42.1961 36.7541 42.1961 36.6927 42.1961 36.6361L39.0935 34.4176C38.6144 34.7462 38.0402 34.9111 37.4579 34.8873C36.8757 34.8634 36.3171 34.6521 35.8671 34.2855L32.8598 36.4048C33.0086 36.9395 32.984 37.507 32.7896 38.0271C32.5953 38.5473 32.2409 38.9939 31.7765 39.3038C31.3121 39.6138 30.7611 39.7715 30.2014 39.7548C29.6416 39.738 29.1013 39.5476 28.6567 39.2103C28.2121 38.8731 27.8856 38.4061 27.7233 37.8753C27.561 37.3445 27.5712 36.7765 27.7523 36.2517C27.9334 35.7269 28.2763 35.2716 28.7327 34.9502C29.1891 34.6287 29.7358 34.4573 30.2958 34.4601C30.6685 34.4595 31.0372 34.5367 31.3777 34.6867L34.9139 32.1898C34.924 31.4875 35.2154 30.818 35.724 30.3285C36.2325 29.8389 36.9166 29.5696 37.6257 29.5796C38.3347 29.5896 39.0108 29.8782 39.505 30.3819C39.9993 30.8855 40.2713 31.563 40.2612 32.2653V32.4399L43.3637 34.6584C43.8222 34.3428 44.3691 34.1777 44.9274 34.1861C45.4857 34.1946 46.0272 34.3763 46.4758 34.7056L50.5363 31.6375L50.3647 31.4251H50.3504ZM50.3123 38.2503H54.001C54.103 38.2515 54.2005 38.2922 54.2726 38.3637C54.3447 38.4351 54.3858 38.5316 54.387 38.6326V52.8164C54.3858 52.9174 54.3447 53.014 54.2726 53.0854C54.2005 53.1568 54.103 53.1975 54.001 53.1987H50.3123C50.2099 53.1987 50.1117 53.1584 50.0393 53.0867C49.9669 53.015 49.9262 52.9178 49.9262 52.8164V38.6562C49.9275 38.5552 49.9685 38.4587 50.0407 38.3873C50.1128 38.3158 50.2103 38.2751 50.3123 38.2739V38.2503ZM43.0206 43.112H46.7093C46.76 43.112 46.8102 43.1219 46.857 43.1411C46.9039 43.1603 46.9464 43.1884 46.9823 43.224C47.0181 43.2595 47.0465 43.3016 47.0659 43.348C47.0853 43.3944 47.0953 43.4441 47.0953 43.4943V52.8164C47.0953 52.9178 47.0547 53.015 46.9823 53.0867C46.9099 53.1584 46.8117 53.1987 46.7093 53.1987H43.0301C42.9277 53.1987 42.8295 53.1584 42.7571 53.0867C42.6847 53.015 42.6441 52.9178 42.6441 52.8164V43.4943C42.6441 43.4441 42.654 43.3944 42.6734 43.348C42.6928 43.3016 42.7213 43.2595 42.7571 43.224C42.793 43.1884 42.8355 43.1603 42.8824 43.1411C42.9292 43.1219 42.9794 43.112 43.0301 43.112H43.0206ZM35.7289 38.2503H39.4128C39.468 38.2462 39.5233 38.2538 39.5752 38.2726C39.6271 38.2915 39.6743 38.3211 39.7136 38.3596C39.7529 38.3981 39.7834 38.4445 39.8031 38.4957C39.8227 38.5469 39.831 38.6016 39.8275 38.6562V52.8164C39.8275 52.9178 39.7868 53.015 39.7144 53.0867C39.642 53.1584 39.5438 53.1987 39.4414 53.1987H35.7384C35.6877 53.1987 35.6375 53.1888 35.5907 53.1696C35.5438 53.1504 35.5013 53.1222 35.4654 53.0867C35.4296 53.0512 35.4011 53.0091 35.3817 52.9627C35.3623 52.9163 35.3524 52.8666 35.3524 52.8164V38.6562C35.3536 38.5552 35.3947 38.4587 35.4668 38.3873C35.5389 38.3158 35.6364 38.2751 35.7384 38.2739L35.7289 38.2503ZM28.4372 43.9144H32.1211C32.2235 43.9144 32.3217 43.9547 32.3941 44.0264C32.4665 44.0981 32.5072 44.1953 32.5072 44.2967V52.8164C32.5072 52.9178 32.4665 53.015 32.3941 53.0867C32.3217 53.1584 32.2235 53.1987 32.1211 53.1987H28.4467C28.3443 53.1987 28.2461 53.1584 28.1737 53.0867C28.1013 53.015 28.0607 52.9178 28.0607 52.8164V44.2778C28.0607 44.1764 28.1013 44.0792 28.1737 44.0075C28.2461 43.9358 28.3443 43.8955 28.4467 43.8955L28.4372 43.9144ZM57.604 25.4071C53.8849 21.7339 48.995 19.4513 43.7673 18.9483C38.5396 18.4453 33.2975 19.7529 28.9341 22.6483C24.5706 25.5438 21.3558 29.848 19.8371 34.8277C18.3185 39.8074 18.5901 45.1545 20.6056 49.9581C22.6211 54.7618 26.2559 58.7247 30.8907 61.1719C35.5255 63.6191 40.8736 64.3991 46.024 63.379C51.1743 62.3589 55.8082 59.6019 59.1363 55.5777C62.4645 51.5534 64.2809 46.5108 64.2761 41.3089C64.2776 38.3535 63.6888 35.4271 62.5437 32.698C61.3986 29.9689 59.7198 27.491 57.604 25.4071Z" fill="white"/>
</g>
<defs>
<clipPath id="clip0_251_1928">
<rect width="58" height="58" fill="white" transform="translate(16 16)"/>
</clipPath>
</defs>
</svg>
