<svg width="90" height="90" viewBox="0 0 90 90" fill="none" xmlns="http://www.w3.org/2000/svg">
<circle cx="45" cy="45" r="45" fill="#F70539"/>
<path d="M15.1172 35.7962V54.3829C15.1172 56.4852 16.8003 58.1136 18.8722 58.1136H22.5604V73H30.0036V54.3889V32.0594H18.8722C16.7699 32.0594 15.1172 33.7303 15.1172 35.7962ZM22.5604 50.6704H18.8418V39.5026H22.5665V50.6704H22.5604ZM74.6627 39.5026V50.6704C74.6627 52.7241 73.0101 54.395 70.9381 54.395V69.2814C70.9381 69.2814 52.5337 58.1136 44.8839 58.1136H33.7282V32.0594H44.89C52.4547 32.0594 70.9442 17.173 70.9442 17.173V35.784C72.9918 35.784 74.6627 37.4367 74.6627 39.5026Z" fill="white"/>
</svg>
