<svg width="90" height="90" viewBox="0 0 90 90" fill="none" xmlns="http://www.w3.org/2000/svg">
<circle cx="45" cy="45" r="45" fill="#122F71"/>
<path d="M15.1182 35.7962V54.3829C15.1182 56.4852 16.8012 58.1136 18.8732 58.1136H22.5614V73H30.0046V54.3889V32.0594H18.8732C16.7709 32.0594 15.1182 33.7303 15.1182 35.7962ZM22.5614 50.6704H18.8428V39.5026H22.5674V50.6704H22.5614ZM74.6637 39.5026V50.6704C74.6637 52.7241 73.011 54.395 70.9391 54.395V69.2814C70.9391 69.2814 52.5346 58.1136 44.8849 58.1136H33.7292V32.0594H44.8909C52.4557 32.0594 70.9452 17.173 70.9452 17.173V35.784C72.9928 35.784 74.6637 37.4367 74.6637 39.5026Z" fill="white"/>
</svg>
