<svg width="90" height="90" viewBox="0 0 90 90" fill="none" xmlns="http://www.w3.org/2000/svg">
<circle cx="45" cy="45" r="45" fill="#F70539"/>
<path d="M60.0961 15.1844C57.5159 15.6465 55.4106 16.7762 53.5107 18.7017C51.8547 20.3705 50.7892 22.2704 50.2115 24.5683C49.9034 25.7878 49.9034 28.843 50.2115 30.0626C50.7892 32.3604 51.8547 34.2603 53.5107 35.9291C55.7828 38.2398 58.453 39.4337 61.6622 39.6005C65.2181 39.7803 68.3247 38.5607 70.905 35.9805C72.6636 34.2218 73.6778 32.4374 74.2683 30.0626C74.5764 28.843 74.5764 25.7878 74.2683 24.5683C73.9474 23.2974 73.344 21.8725 72.6636 20.7685C71.8677 19.4591 70.0192 17.6491 68.6713 16.8147C66.1552 15.2742 62.9588 14.658 60.0961 15.1844ZM70.4557 27.3154C70.4557 31.4105 70.4171 34.7609 70.3658 34.7609C70.3016 34.7609 68.4531 34.2988 66.2579 33.7468L62.2399 32.7327V33.3232C62.2399 34.286 61.9832 34.9022 61.2771 35.5954C60.4684 36.4169 59.9934 36.5581 58.132 36.5581C56.2707 36.5581 55.7957 36.4169 54.9869 35.5954C54.1525 34.7738 54.0242 34.3116 54.0242 32.2834V30.6787L53.0357 30.4348L52.0344 30.1909V27.3154V24.4399L61.0846 22.1677C66.0654 20.9225 70.2118 19.8827 70.3016 19.8827C70.4171 19.8699 70.4557 21.436 70.4557 27.3154Z" fill="white"/>
<path d="M67.3509 22.7194L66.3496 22.9761V27.3151V31.654L67.3766 31.9107L68.4035 32.1675V27.3022C68.4035 24.6193 68.3907 22.437 68.3779 22.4498C68.3522 22.4626 67.8901 22.5782 67.3509 22.7194Z" fill="white"/>
<path d="M61.188 24.2598L58.1328 25.03V27.315V29.6L61.2137 30.3702L64.2946 31.1404V27.3021C64.2946 25.184 64.2818 23.4639 64.269 23.4767C64.2433 23.4767 62.8569 23.8361 61.188 24.2598Z" fill="white"/>
<path d="M55.0267 25.8001L54.0254 26.0568V27.3148V28.5729L55.0524 28.8296L56.0793 29.0864V27.302C56.0793 26.3135 56.0665 25.5176 56.0537 25.5305C56.028 25.5433 55.5658 25.6589 55.0267 25.8001Z" fill="white"/>
<path d="M56.0791 32.5395C56.0791 33.7847 56.1048 33.9003 56.4 34.1827C56.6953 34.4908 56.798 34.5036 58.133 34.5036C59.4681 34.5036 59.5708 34.4908 59.866 34.1827C60.1356 33.9131 60.187 33.759 60.187 33.053V32.2186L58.133 31.7051L56.0791 31.1916V32.5395Z" fill="white"/>
<path d="M31.6248 27.4954C30.6877 27.919 30.4053 28.5608 30.4053 30.2168V31.4235H32.472H34.5388L34.4875 30.0243C34.449 28.5095 34.3334 28.2142 33.5889 27.6622C33.1524 27.3413 32.1383 27.2515 31.6248 27.4954Z" fill="white"/>
<path d="M37.785 27.4954C36.8478 27.919 36.5654 28.5608 36.5654 30.2168V31.4235H38.6322H40.699L40.6476 30.0243C40.6091 28.5095 40.4936 28.2142 39.749 27.6622C39.3126 27.3413 38.2984 27.2515 37.785 27.4954Z" fill="white"/>
<path d="M43.9471 27.4954C43.01 27.919 42.7275 28.5608 42.7275 30.2168V31.4235H44.7943H46.8611L46.8097 30.0243C46.7712 28.5095 46.6557 28.2142 45.9111 27.6622C45.4747 27.3413 44.4605 27.2515 43.9471 27.4954Z" fill="white"/>
<path d="M15 35.4668C15 37.0586 15.0385 37.4565 15.1797 37.4565C15.5905 37.4565 17.1823 36.5194 17.683 35.9674C18.1836 35.4283 18.9795 34.0034 18.9795 33.6311C18.9795 33.5156 18.4917 33.477 16.9898 33.477H15V35.4668Z" fill="white"/>
<path d="M20.9307 34.1442C20.3531 36.6474 18.1708 38.8169 15.6547 39.4202L15 39.5743V42.7194V45.8645L15.6547 46.0185C18.1708 46.6219 20.3531 48.7913 20.9307 51.2817L21.0976 51.9621H22.1503H23.2029L23.2414 47.1097L23.2799 42.2701L23.6907 41.41C24.1914 40.3573 24.9616 39.5871 26.0399 39.0736C26.7716 38.727 27.0027 38.6757 27.9912 38.6757H29.1208L29.3262 38.1622C29.8525 36.8143 31.4572 34.7732 32.7152 33.8233L33.1645 33.4767H27.1311H21.0976L20.9307 34.1442Z" fill="white"/>
<path d="M37.8489 33.6568C34.922 34.2858 32.4701 36.2242 31.2378 38.9072L30.9297 39.5747L31.3661 40.024C31.6101 40.2808 32.008 40.8456 32.2391 41.2821C32.637 42.0266 32.6755 42.0651 32.9194 41.8854C33.8822 41.1537 35.0632 42.5658 34.1903 43.4259C33.8565 43.7725 33.2532 43.8495 32.9965 43.5927C32.7911 43.3873 32.7911 43.3873 33.0992 46.6993L33.3559 49.4593L33.8309 49.8701C34.6139 50.5376 35.7821 51.1666 36.8861 51.5389C37.7975 51.8342 38.1185 51.8727 39.6461 51.8727C41.1737 51.8727 41.4946 51.8342 42.4061 51.5389C43.8823 51.0511 44.9606 50.3707 46.1288 49.2026C47.297 48.0344 47.9774 46.9561 48.4652 45.4798C48.7604 44.5684 48.7989 44.2474 48.7989 42.7198C48.7989 41.1922 48.7604 40.8713 48.4652 39.9598C47.9774 38.4836 47.297 37.4053 46.1288 36.2371C44.3445 34.4527 42.4959 33.6311 40.0312 33.5413C39.1839 33.5028 38.3752 33.5541 37.8489 33.6568ZM40.6731 36.6222V37.7133L41.1609 37.9573C41.4176 38.0856 41.7642 38.3424 41.9183 38.5092C42.2905 38.9072 42.727 39.87 42.727 40.3064V40.6659H41.7C40.8271 40.6659 40.6731 40.6402 40.6731 40.4477C40.6731 40.0625 40.1467 39.6389 39.6589 39.6389C39.1583 39.6389 38.6191 40.0497 38.6191 40.4348C38.6191 40.9355 38.9144 41.1922 40.2879 41.8982C41.777 42.6556 42.2135 43.0536 42.5473 43.965C42.7912 44.6582 42.7655 45.3899 42.4574 46.0575C42.1365 46.7763 41.777 47.1615 41.1609 47.4824L40.6731 47.7263V48.8174V49.9086H39.6461H38.6191V48.8174V47.7263L38.1441 47.4824C37.1172 46.9561 36.578 45.9676 36.5652 44.6069V43.7468H37.5921H38.6191V44.4785C38.6191 45.3899 38.94 45.8007 39.6332 45.8007C40.1339 45.8007 40.6731 45.3899 40.6731 45.0048C40.6731 44.5042 40.3778 44.2474 39.0042 43.5414C37.5151 42.784 37.0787 42.3861 36.7449 41.4746C36.501 40.7814 36.5267 40.0497 36.8348 39.3822C37.1557 38.6633 37.5151 38.2782 38.1441 37.9573L38.6191 37.7133V36.6222V35.531H39.6461H40.6731V36.6222ZM46.5139 42.0138C46.7193 42.2063 46.8349 42.4759 46.8349 42.7198C46.8349 42.9637 46.7193 43.2333 46.5139 43.4259C46.3214 43.6313 46.0518 43.7468 45.8079 43.7468C45.564 43.7468 45.2944 43.6313 45.1019 43.4259C44.8965 43.2333 44.7809 42.9637 44.7809 42.7198C44.7809 42.4759 44.8965 42.2063 45.1019 42.0138C45.2944 41.8084 45.564 41.6929 45.8079 41.6929C46.0518 41.6929 46.3214 41.8084 46.5139 42.0138Z" fill="white"/>
<path d="M46.5802 33.8233C48.4544 35.2482 49.9692 37.5845 50.6367 40.1006C50.9576 41.333 50.9576 44.1058 50.6367 45.3381C49.9692 47.8542 48.4544 50.1906 46.5802 51.6155L46.1309 51.9621H52.1643H58.1977L58.3518 51.3074C58.9551 48.7657 61.0989 46.6219 63.6407 46.0185L64.2954 45.8645V43.7207V41.564L62.986 41.6411C57.6457 41.9748 52.3697 39.048 49.7124 34.2854L49.2503 33.4767H47.697H46.1309L46.5802 33.8233Z" fill="white"/>
<path d="M27.0933 40.8065C26.4772 40.9863 25.5786 41.9362 25.3989 42.5909C25.2962 42.976 25.2705 45.3894 25.309 50.8452C25.3603 59.3562 25.3603 59.2663 26.2333 61.7182C27.0548 63.9904 28.8007 66.6476 30.3026 67.9442L30.8418 68.3935H40.675H50.5082L51.3298 67.1611C53.3324 64.1316 54.0256 61.4358 54.0256 56.6732V54.0159H45.3606C40.598 54.0159 36.6955 54.0416 36.6955 54.0801C36.6955 54.1058 36.811 54.4396 36.9651 54.8118C37.2475 55.5435 37.5941 57.1353 37.5941 57.7515V58.1238H36.58H35.5787L35.4888 57.3536C35.2578 55.2996 34.2693 53.618 32.4464 52.2187C31.7275 51.6667 31.4323 51.3458 31.4323 51.1533C31.4195 50.0236 30.6492 42.6679 30.4952 42.3213C29.956 41.0504 28.5054 40.4086 27.0933 40.8065Z" fill="white"/>
<path d="M15 49.9723V51.9621H16.9898C18.4917 51.9621 18.9795 51.9236 18.9795 51.7952C18.9795 51.4358 18.1836 50.0109 17.683 49.4717C17.1823 48.9197 15.5905 47.9826 15.1797 47.9826C15.0385 47.9826 15 48.3805 15 49.9723Z" fill="white"/>
<path d="M63.0488 48.4319C62.5096 48.7015 61.9191 49.1251 61.611 49.4717C61.1104 50.0109 60.3145 51.4358 60.3145 51.7952C60.3145 51.9236 60.8023 51.9621 62.3042 51.9621H64.294V49.9723C64.294 48.3805 64.2554 47.9826 64.1142 47.9826C64.0244 47.9826 63.5366 48.188 63.0488 48.4319Z" fill="white"/>
<path d="M29.6969 70.7687C29.3888 71.064 29.376 71.141 29.376 72.8227V74.5557H40.6726H51.9693V72.8227C51.9693 71.141 51.9565 71.064 51.6484 70.7687L51.3403 70.4478H40.6726H30.005L29.6969 70.7687Z" fill="white"/>
</svg>
