<svg width="90" height="90" viewBox="0 0 90 90" fill="none" xmlns="http://www.w3.org/2000/svg">
<circle cx="45" cy="45" r="45" fill="#122F71"/>
<path d="M75.5292 68.446L69.9121 62.8289C72.3209 57.5368 71.3638 51.0797 67.0207 46.7346C61.4258 41.1396 52.3277 41.1396 46.7267 46.7366C41.1318 52.3295 41.1318 61.4296 46.7328 67.0225C51.0718 71.3677 57.5329 72.3247 62.825 69.9159L68.4422 75.5331C70.4047 77.4896 73.5727 77.4896 75.5292 75.5331C76.4701 74.5942 76.9991 73.3161 76.9991 71.9916C76.9971 70.663 76.4701 69.3849 75.5292 68.446ZM63.4408 63.4467C59.8246 67.0629 53.9288 67.0629 50.3126 63.4467C46.6924 59.8265 46.6924 53.9347 50.3126 50.3185C53.9288 46.6962 59.8246 46.6962 63.4408 50.3185C67.057 53.9307 67.0651 59.8265 63.4408 63.4467Z" fill="white"/>
<path d="M45.2853 68.4687C44.0739 67.2572 43.0845 65.8903 42.3173 64.4103V69.773C40.0034 68.6403 37.8611 66.1407 36.1428 62.5749C37.7521 62.0903 39.442 61.7754 41.1603 61.5593C40.7161 60.0611 40.4819 58.4903 40.4819 56.8831C40.4819 56.4146 40.5122 55.9462 40.5485 55.4798C38.2952 55.7483 36.1226 56.1986 34.0571 56.8548C33.31 54.1209 32.8355 51.1892 32.6417 48.1383H42.3152V49.3458C43.0805 47.8718 44.0678 46.5029 45.2773 45.2954C46.6462 43.9285 48.2211 42.8483 49.9252 42.0528H47.8617V34.8789C50.7591 34.677 53.5233 34.156 56.1219 33.3343C56.7437 35.6058 57.1233 38.0267 57.3636 40.5223C59.3403 40.5788 61.2605 40.9746 63.0413 41.6954C62.8293 37.9742 62.264 34.4306 61.3614 31.1496C62.6375 30.4631 63.8449 29.6857 64.9655 28.8317C68.2203 32.6336 70.2314 37.1726 70.825 42.0528H63.8207C65.5248 42.8503 67.0977 43.9285 68.4646 45.2934C69.3308 46.1596 70.0456 47.1268 70.6836 48.1404H70.825C70.8149 48.1969 70.8028 48.2595 70.7947 48.318C72.8582 51.7041 73.6396 55.7362 72.9814 59.6432C75.2609 55.29 76.5693 50.3452 76.5693 45.0955C76.5734 27.7272 62.4457 13.6016 45.0895 13.6016C27.7252 13.6016 13.6016 27.7272 13.6016 45.0915C13.6016 62.4558 27.7252 76.5814 45.0895 76.5814C50.3068 76.5814 55.2213 75.2811 59.5604 73.0258C58.6659 73.1752 57.7553 73.254 56.8508 73.254C52.4754 73.2519 48.3685 71.5519 45.2853 68.4687ZM60.4912 24.6683C60.0975 24.9207 59.7017 25.1609 59.302 25.3871C58.9547 24.6259 58.5912 23.895 58.2157 23.1984C58.9991 23.6506 59.7522 24.1413 60.4912 24.6683ZM47.8637 20.3999C50.1716 21.5286 52.3138 24.0262 54.0321 27.596C52.0594 28.1876 49.9979 28.5833 47.8637 28.765V20.3999ZM42.3193 20.3958V28.7691C40.181 28.5874 38.1175 28.1977 36.1449 27.602C37.8631 24.0262 40.0054 21.5286 42.3193 20.3958ZM34.0551 33.3262C36.6617 34.1459 39.434 34.6649 42.3193 34.8728V42.0467H32.6457C32.8376 38.9958 33.3141 36.0701 34.0551 33.3262ZM25.2033 61.3453C21.9566 57.5413 19.9456 53.0084 19.352 48.1303H27.1013C27.3093 51.9908 27.8766 55.6534 28.8115 59.0253C27.5354 59.7118 26.326 60.4912 25.2033 61.3453ZM27.1013 42.0447H19.352C19.9476 37.1706 21.9506 32.6397 25.1973 28.8438C26.2977 29.6857 27.5071 30.4611 28.8095 31.1557C27.8746 34.5296 27.3012 38.1842 27.1013 42.0447ZM29.6918 65.5087C30.0875 65.2543 30.4813 65.012 30.8831 64.7899C31.2283 65.5511 31.5918 66.282 31.9714 66.9826C31.1819 66.5303 30.4207 66.0357 29.6918 65.5087ZM30.8891 25.379C30.4611 25.1468 30.0674 24.9106 29.6918 24.6683C30.4207 24.1413 31.1819 23.6506 31.9714 23.1984C31.5898 23.8909 31.2283 24.6218 30.8891 25.379Z" fill="white"/>
</svg>
