<svg width="48" height="48" viewBox="0 0 48 48" fill="none" xmlns="http://www.w3.org/2000/svg">
<circle cx="24" cy="24" r="24" fill="#F70539"/>
<path d="M34.0909 17.039C33.7519 17.1894 33.4034 17.3163 33.0472 17.4193C33.4689 16.9425 33.7904 16.3814 33.9866 15.7674C34.0306 15.6298 33.985 15.4791 33.8719 15.3891C33.7589 15.2991 33.6019 15.2883 33.4775 15.362C32.7212 15.8106 31.9052 16.1329 31.0496 16.3215C30.1877 15.4793 29.0171 15 27.8069 15C25.2525 15 23.1743 17.0781 23.1743 19.6325C23.1743 19.8337 23.187 20.0338 23.2122 20.2311C20.0424 19.9527 17.0955 18.3947 15.0718 15.9124C14.9997 15.8239 14.8886 15.7763 14.7749 15.7854C14.661 15.7943 14.5588 15.8585 14.5013 15.9571C14.0908 16.6614 13.8739 17.4669 13.8739 18.2864C13.8739 19.4027 14.2724 20.4617 14.9764 21.2893C14.7623 21.2152 14.5546 21.1225 14.3563 21.0125C14.2499 20.9532 14.12 20.9541 14.0143 21.0148C13.9085 21.0754 13.8421 21.1869 13.8393 21.3088C13.8388 21.3293 13.8388 21.3499 13.8388 21.3707C13.8388 23.0369 14.7356 24.5369 16.1066 25.3545C15.9888 25.3428 15.8711 25.3257 15.7542 25.3034C15.6336 25.2803 15.5096 25.3226 15.4283 25.4146C15.3469 25.5064 15.3199 25.6345 15.3575 25.7515C15.8649 27.3359 17.1715 28.5013 18.751 28.8566C17.441 29.6771 15.9428 30.1069 14.3701 30.1069C14.042 30.1069 13.7119 30.0876 13.3889 30.0494C13.2285 30.0303 13.0751 30.125 13.0204 30.2776C12.9658 30.4303 13.0237 30.6005 13.1602 30.688C15.1806 31.9834 17.5167 32.6681 19.9159 32.6681C24.6324 32.6681 27.583 30.444 29.2276 28.5782C31.2784 26.2516 32.4546 23.1722 32.4546 20.1295C32.4546 20.0024 32.4526 19.874 32.4487 19.7461C33.2578 19.1365 33.9544 18.3987 34.5213 17.5508C34.6074 17.422 34.5981 17.2518 34.4983 17.1332C34.3987 17.0146 34.2327 16.9762 34.0909 17.039Z" fill="white"/>
</svg>
